<?xml version="1.0" encoding="UTF-8"?>
<svg xmlns="http://www.w3.org/2000/svg" width="45" height="45" viewBox="0 0 45 45">
  <title>先手 飛</title>
  <defs>
    <linearGradient id="surface" x1="0%" y1="0%" x2="0%" y2="100%">
      <stop offset="0%" stop-color="#ffedc3" />
      <stop offset="100%" stop-color="#dfb775" />
    </linearGradient>
  </defs>
  <g transform="matrix(0.96825,0,0,0.96825,0.71429604,0.71375615)">
    <polygon points="4.48,42.79 40.52,43 34.84,6.75 22.76,2 10.47,6.65 " fill="url(#surface)" stroke="#987040" stroke-width="0.55" />
    <g>
      <path d="M5.2567,38.1037 L5.2237,40.8681 L5.1773,42.7941 L4.9372,42.7927 L4.9837,40.8610 L5.0025,39.6373 L5.2567,38.1037 Z" fill="#895725" opacity="0.0838" />
      <path d="M6.9378,27.9610 L6.9876,30.0428 L7.0314,32.3613 L7.0594,34.6827 L7.0675,36.2306 L7.0658,37.7780 L7.0533,39.3239 L7.0287,40.8677 L6.9785,42.8046 L6.7824,42.8034 L6.8327,40.8615 L6.8572,39.3188 L6.8697,37.7739 L6.8713,36.2275 L6.8464,33.1333 L6.8074,30.8145 L6.7671,28.9912 L6.9378,27.9610 Z" fill="#895725" opacity="0.0543" />
      <path d="M8.4444,18.8711 L8.5124,27.7299 L8.5410,33.1344 L8.5449,38.5496 L8.5222,42.8136 L8.2802,42.8121 L8.3029,38.5481 L8.3013,33.9074 L8.2755,28.5000 L8.2131,20.2670 L8.4444,18.8711 Z" fill="#895725" opacity="0.0757" />
      <path d="M10.1411,8.6341 L10.1499,11.9105 L10.1770,14.8521 L10.2283,18.5851 L10.3754,27.7299 L10.4360,33.1344 L10.4492,36.2296 L10.4452,38.5497 L10.4269,40.8657 L10.3984,42.8245 L10.2734,42.8238 L10.3097,40.0923 L10.3230,37.7752 L10.3227,35.4549 L10.3048,32.3604 L10.2503,27.7299 L10.0809,17.0849 L10.0302,12.6410 L10.0158,9.3905 L10.1411,8.6341 Z" fill="#895725" opacity="0.0638" />
      <path d="M11.5411,6.2447 L11.5249,7.5898 L11.5192,9.7363 L11.5344,11.9117 L11.5669,14.1134 L11.6694,18.5851 L11.9239,27.7299 L11.9921,30.8153 L12.0289,33.1351 L12.0522,36.2310 L12.0455,38.5516 L12.0142,40.8683 L11.9650,42.8336 L11.7189,42.8322 L11.7517,41.6310 L11.7815,40.0899 L11.8041,37.7735 L11.8033,35.4537 L11.7719,32.3599 L11.7304,30.0423 L11.6774,27.7300 L11.4433,19.3382 L11.3667,16.3378 L11.3205,14.1114 L11.2881,11.9084 L11.2725,9.0120 L11.2937,6.3383 L11.5411,6.2447 Z" fill="#895725" opacity="0.0549" />
      <path d="M13.4424,5.5254 L13.4269,9.7348 L13.4453,14.1128 L13.4863,18.5851 L13.5972,28.5001 L13.6366,33.9082 L13.6409,38.5498 L13.6095,42.8432 L13.3945,42.8419 L13.4258,38.5479 L13.4279,36.2284 L13.4178,33.1338 L13.3744,27.7299 L13.2486,16.3381 L13.2175,11.9095 L13.2128,8.2978 L13.2267,5.6070 L13.4424,5.5254 Z" fill="#895725" opacity="0.0680" />
      <path d="M16.0004,4.5575 L15.9807,6.8788 L15.9745,9.0158 L15.9883,13.3760 L16.0274,17.8340 L16.1493,28.5001 L16.1898,33.9082 L16.1942,38.5499 L16.1819,40.8659 L16.1618,42.8581 L15.9458,42.8568 L15.9659,40.8632 L15.9782,38.5479 L15.9803,36.2284 L15.9699,33.1338 L15.9254,27.7299 L15.7962,16.3381 L15.7643,11.9094 L15.7594,8.2977 L15.7834,4.6396 L16.0004,4.5575 Z" fill="#895725" opacity="0.0473" />
      <path d="M17.4938,3.9925 L17.4395,6.1746 L17.4166,8.3008 L17.4184,10.4576 L17.4523,13.3763 L17.4966,15.5942 L17.5528,17.8341 L17.7776,25.4251 L17.8614,28.5001 L17.9283,31.5879 L17.9618,33.9085 L17.9770,36.2303 L17.9700,38.5506 L17.9371,40.8669 L17.8842,42.8681 L17.7371,42.8672 L17.7901,40.8622 L17.8230,38.5472 L17.8299,36.2279 L17.8053,33.1335 L17.7664,30.8145 L17.6944,27.7299 L17.4477,19.3382 L17.3669,16.3380 L17.3051,13.3748 L17.2766,11.1804 L17.2676,9.0130 L17.2743,7.5843 L17.3063,5.4674 L17.3438,4.0748 L17.3447,4.0489 L17.4938,3.9925 Z" fill="#895725" opacity="0.0631" />
      <path d="M19.7624,3.1341 L19.7274,4.7752 L19.7011,6.8797 L19.6921,9.0164 L19.6981,11.1828 L19.7165,13.3762 L19.7563,16.3385 L19.9663,27.7299 L20.0300,32.3611 L20.0509,35.4563 L20.0513,37.7774 L20.0358,40.0954 L19.9924,42.8804 L19.7723,42.8791 L19.8158,40.0912 L19.8313,37.7745 L19.8308,35.4544 L19.8098,32.3602 L19.7461,27.7299 L19.5361,16.3380 L19.4964,13.3748 L19.4780,11.1805 L19.4721,9.0131 L19.4811,6.8752 L19.5075,4.7694 L19.5402,3.2182 L19.7624,3.1341 Z" fill="#895725" opacity="0.0785" />
      <path d="M20.8949,2.7057 L20.8494,4.7747 L20.8232,6.8793 L20.8140,9.0161 L20.8194,11.1826 L20.8371,13.3761 L20.8756,16.3385 L21.0805,27.7299 L21.1256,30.8150 L21.1501,33.1346 L21.1658,36.2300 L21.1617,38.5502 L21.1413,40.8664 L21.1082,42.8869 L20.9281,42.8858 L20.9614,40.8628 L20.9816,38.5476 L20.9857,36.2282 L20.9700,33.1337 L20.9455,30.8146 L20.9003,27.7299 L20.6955,16.3380 L20.6570,13.3750 L20.6393,11.1807 L20.6340,9.0134 L20.6432,6.8756 L20.6694,4.7699 L20.7131,2.7744 L20.8949,2.7057 Z" fill="#895725" opacity="0.0739" />
      <path d="M22.9600,2.0787 L22.9133,4.0813 L22.8836,6.1745 L22.8702,8.3007 L22.8739,11.1828 L22.8901,13.3763 L22.9255,16.3385 L23.1136,27.7299 L23.1775,33.1347 L23.1919,36.2302 L23.1881,38.5505 L23.1694,40.8668 L23.1388,42.8987 L22.8977,42.8973 L22.9284,40.8624 L22.9470,38.5473 L22.9508,36.2280 L22.9364,33.1335 L22.8724,27.7299 L22.6843,16.3380 L22.6490,13.3748 L22.6328,11.1805 L22.6291,8.2971 L22.6426,6.1696 L22.6723,4.0750 L22.7207,2.0149 L22.7600,2.0000 L22.9600,2.0787 Z" fill="#895725" opacity="0.0535" />
      <path d="M25.2091,2.9630 L25.1635,4.7756 L25.1327,6.8800 L25.1217,9.0166 L25.1275,11.1829 L25.1476,13.3764 L25.1918,16.3386 L25.4285,27.7299 L25.4809,30.8151 L25.5095,33.1347 L25.5280,36.2303 L25.5237,38.5507 L25.5008,40.8670 L25.4623,42.9123 L25.2473,42.9110 L25.2858,40.8621 L25.3087,38.5471 L25.3129,36.2279 L25.2943,33.1335 L25.2657,30.8145 L25.2133,27.7300 L24.9766,16.3379 L24.9325,13.3747 L24.9124,11.1803 L24.9066,9.0129 L24.9177,6.8749 L24.9486,4.7690 L24.9965,2.8794 L25.2091,2.9630 Z" fill="#895725" opacity="0.0404" />
      <path d="M26.4881,3.4659 L26.4274,5.4747 L26.4022,6.8812 L26.3869,9.0175 L26.3953,11.1836 L26.4235,13.3767 L26.4854,16.3387 L26.5667,19.3382 L26.8161,27.7299 L26.8893,30.8152 L26.9291,33.1350 L26.9548,36.2309 L26.9485,38.5515 L26.9162,40.8682 L26.8621,42.9204 L26.6350,42.9191 L26.6892,40.8609 L26.7214,38.5462 L26.7275,36.2273 L26.7017,33.1332 L26.6618,30.8144 L26.5886,27.7300 L26.3392,19.3382 L26.2580,16.3378 L26.1962,13.3743 L26.1680,11.1797 L26.1597,9.0120 L26.1752,6.8737 L26.2181,4.7674 L26.2641,3.3778 L26.4881,3.4659 Z" fill="#895725" opacity="0.0624" />
      <path d="M28.7241,4.3452 L28.6964,6.1735 L28.6815,8.3000 L28.6818,10.4570 L28.7022,13.3760 L28.7638,17.8340 L28.9554,28.5001 L28.9974,31.5877 L29.0187,33.9082 L29.0287,36.2297 L29.0251,38.5498 L29.0054,40.8659 L28.9721,42.9327 L28.8381,42.9319 L28.8714,40.8633 L28.8911,38.5479 L28.8947,36.2284 L28.8786,33.1338 L28.8541,30.8147 L28.8090,27.7299 L28.6059,16.3381 L28.5554,11.9095 L28.5461,9.7330 L28.5506,7.5852 L28.5624,6.1705 L28.5911,4.2928 L28.7241,4.3452 Z" fill="#895725" opacity="0.0524" />
      <path d="M30.7812,5.1540 L30.7606,6.8792 L30.7510,9.0161 L30.7560,11.1826 L30.7732,13.3761 L30.8348,17.8340 L31.0264,28.5001 L31.0684,31.5878 L31.0897,33.9083 L31.0997,36.2299 L31.0961,38.5501 L31.0764,40.8663 L31.0429,42.9448 L30.8669,42.9438 L30.9004,40.8629 L30.9201,38.5476 L30.9237,36.2282 L30.9076,33.1337 L30.8831,30.8146 L30.8380,27.7299 L30.6349,16.3380 L30.5844,11.9093 L30.5764,8.2974 L30.5846,6.8756 L30.6062,5.0852 L30.7812,5.1540 Z" fill="#895725" opacity="0.0548" />
      <path d="M32.4661,5.8166 L32.4407,7.5899 L32.4339,9.7364 L32.4489,11.9118 L32.4818,14.1134 L32.5666,17.8342 L32.8691,28.5001 L32.9351,31.5881 L32.9685,33.9089 L32.9841,36.2310 L32.9781,38.5516 L32.9468,40.8683 L32.8933,42.9556 L32.6502,42.9541 L32.7038,40.8608 L32.7350,38.5461 L32.7409,36.2272 L32.7158,33.1332 L32.6772,30.8144 L32.6062,27.7300 L32.3643,19.3382 L32.2856,16.3377 L32.2384,14.1114 L32.2056,11.9083 L32.1904,9.0119 L32.1976,7.5829 L32.2249,5.7217 L32.4661,5.8166 Z" fill="#895725" opacity="0.0546" />
      <path d="M34.2657,6.5242 L34.2546,9.7349 L34.2634,11.9107 L34.2825,14.1128 L34.3316,17.8340 L34.5057,28.5001 L34.5574,33.1345 L34.5715,36.2298 L34.5678,38.5500 L34.5495,40.8661 L34.5181,42.9650 L34.3521,42.9641 L34.3835,40.8631 L34.4017,38.5478 L34.4054,36.2283 L34.3913,33.1337 L34.3284,27.7299 L34.1437,16.3381 L34.0973,11.9094 L34.0883,9.0136 L34.1002,6.4591 L34.2657,6.5242 Z" fill="#895725" opacity="0.0442" />
      <path d="M35.4738,10.7950 L35.4970,13.3764 L35.5424,16.3386 L35.7827,27.7299 L35.8353,30.8152 L35.8638,33.1349 L35.8816,36.2305 L35.8764,38.5510 L35.8521,40.8675 L35.8107,42.9726 L35.5646,42.9711 L35.6061,40.8617 L35.6303,38.5467 L35.6355,36.2276 L35.6176,33.1334 L35.5891,30.8145 L35.5364,27.7299 L35.3397,18.5850 L35.2833,15.5934 L35.2353,11.9088 L35.2232,9.1957 L35.4738,10.7950 Z" fill="#895725" opacity="0.0477" />
      <path d="M38.0776,27.4127 L38.1318,30.0428 L38.1688,32.3611 L38.1927,34.6823 L38.1997,36.2301 L38.1947,38.5504 L38.1795,40.0951 L38.1538,41.6374 L38.1216,42.9860 L37.9666,42.9851 L38.0131,40.8625 L38.0333,39.3197 L38.0435,37.7746 L38.0420,35.4545 L38.0026,31.5872 L37.9618,29.2709 L37.8956,26.2511 L38.0776,27.4127 Z" fill="#895725" opacity="0.0722" />
      <path d="M40.0701,40.1290 L40.0365,41.6397 L39.9935,42.9969 L39.7534,42.9955 L39.8155,40.8604 L39.8491,38.7183 L40.0701,40.1290 Z" fill="#895725" opacity="0.0781" />
      <path d="M10.2832,7.7770 L11.5832,7.9806 L12.8299,8.1584 L13.6599,8.2587 L14.4906,8.3386 L15.3232,8.3935 L16.1593,8.4184 L17.0000,8.4084 L17.4226,8.3889 L17.8468,8.3588 L18.2729,8.3175 L18.7010,8.2646 L19.1312,8.1992 L19.5639,8.1210 L19.9990,8.0291 L20.4369,7.9231 L20.8776,7.8023 L21.3213,7.6661 L21.7682,7.5140 L22.2184,7.3452 L22.6722,7.1592 L23.1297,6.9554 L23.8071,6.6212 L22.8740,6.6040 L21.6116,6.5688 L17.0203,6.3952 L15.3481,6.3449 L14.0869,6.3221 L13.2414,6.3166 L12.3912,6.3203 L11.2857,6.3414 L10.4700,6.6500 L10.2832,7.7770 Z M23.8071,6.6212 L24.0565,6.4920 L24.5260,6.2311 L25.4717,5.6666 L26.3889,5.1473 L27.2731,4.6896 L27.7034,4.4833 L28.3477,4.1971 L33.9284,6.3916 L32.8297,6.3983 L31.8897,6.4227 L28.5306,6.5577 L27.0365,6.6045 L25.4241,6.6289 L23.8071,6.6212 Z" fill="#895725" opacity="0.1163" />
      <path d="M10.3846,7.1653 L12.0260,7.4192 L13.2536,7.5852 L14.3567,7.7015 L14.9091,7.7442 L15.4000,7.7720 L15.8910,7.7891 L16.3829,7.7945 L16.8763,7.7873 L17.3098,7.7698 L17.7455,7.7413 L18.2348,7.6954 L18.7187,7.6351 L19.1436,7.5693 L19.6317,7.4783 L20.0613,7.3842 L20.4940,7.2757 L20.9300,7.1523 L21.3668,7.0144 L21.8476,6.8458 L22.2709,6.6825 L22.6969,6.5038 L23.3111,6.2207 L23.9329,5.9032 L24.4367,5.6230 L25.4068,5.0438 L26.1113,4.6428 L26.8587,4.2459 L27.5770,3.8941 L28.1592,4.1230 L27.4581,4.4494 L26.7244,4.8226 L25.9029,5.2761 L24.8028,5.9305 L24.2401,6.2483 L23.5593,6.5996 L22.8862,6.9114 L22.4622,7.0900 L21.9819,7.2757 L21.5062,7.4423 L21.0740,7.5788 L20.6407,7.7019 L20.1483,7.8253 L19.7199,7.9189 L19.2334,8.0099 L18.6302,8.1010 L18.0327,8.1682 L17.4202,8.2143 L16.8081,8.2389 L16.1381,8.2430 L15.4717,8.2254 L14.8093,8.1884 L14.0803,8.1280 L13.3492,8.0498 L12.4969,7.9407 L11.5842,7.8083 L10.3110,7.6092 L10.3846,7.1653 Z" fill="#fff3d4" opacity="0.0920" />
      <path d="M8.8760,16.2672 L9.4898,16.4139 L10.3305,16.6273 L13.2449,17.3983 L14.4906,17.7017 L15.3232,17.8820 L15.7407,17.9637 L16.5790,18.1068 L17.0000,18.1670 L17.8468,18.2613 L18.2729,18.2942 L18.7010,18.3167 L19.1312,18.3281 L19.5639,18.3279 L19.9990,18.3153 L20.4369,18.2898 L20.8776,18.2507 L21.3213,18.1973 L21.9979,18.0863 L20.7739,17.9403 L19.9383,17.8204 L19.1043,17.6876 L17.8541,17.4701 L14.9285,16.9251 L13.6647,16.6977 L12.3912,16.4872 L11.5355,16.3609 L10.2401,16.1992 L9.3673,16.1140 L8.9074,16.0778 L8.8760,16.2672 Z M21.9979,18.0863 L22.6722,17.9452 L23.1297,17.8284 L23.5911,17.6941 L24.0565,17.5417 L24.5260,17.3706 L26.8350,16.4220 L27.7034,16.0768 L28.5418,15.7546 L29.3524,15.4561 L30.1372,15.1817 L31.2709,14.8164 L32.0007,14.6044 L32.7122,14.4183 L33.4074,14.2585 L33.7496,14.1887 L34.4245,14.0693 L34.7577,14.0199 L35.4169,13.9421 L35.9603,13.8996 L36.3565,16.4285 L35.9050,16.4920 L35.2872,16.5952 L34.3673,16.7764 L33.4475,16.9804 L31.2501,17.4898 L30.5971,17.6307 L29.9280,17.7643 L28.8882,17.9443 L28.1670,18.0466 L27.7970,18.0913 L27.0365,18.1660 L26.2464,18.2187 L25.4241,18.2464 L25.0000,18.2500 L24.5722,18.2464 L23.7207,18.2185 L22.8740,18.1655 L21.9979,18.0863 Z" fill="#895725" opacity="0.0959" />
      <path d="M8.9768,15.6592 L10.2729,15.9799 L12.7824,16.6460 L13.9188,16.9351 L15.0547,17.1963 L16.0903,17.3987 L16.7144,17.4997 L17.2366,17.5704 L17.7612,17.6275 L18.3343,17.6727 L18.8793,17.6979 L19.3658,17.7048 L19.9163,17.6938 L20.4094,17.6664 L20.8442,17.6280 L21.2198,17.5839 L21.6555,17.5197 L22.0284,17.4535 L22.4032,17.3762 L22.7810,17.2871 L23.1604,17.1865 L23.5933,17.0578 L24.0913,16.8912 L24.5313,16.7274 L26.1911,16.0411 L27.1908,15.6372 L28.2564,15.2222 L29.1780,14.8799 L30.0669,14.5680 L30.9259,14.2874 L31.7402,14.0438 L32.4985,13.8398 L33.4224,13.6255 L34.2622,13.4676 L35.0826,13.3518 L35.8632,13.2798 L35.9330,13.7259 L35.4651,13.7633 L34.9674,13.8189 L34.4629,13.8910 L33.9769,13.9744 L33.4938,14.0701 L32.9419,14.1941 L32.4426,14.3186 L31.8694,14.4749 L31.1511,14.6885 L30.4943,14.8993 L29.7223,15.1632 L28.9252,15.4515 L28.1009,15.7636 L27.1380,16.1427 L24.7088,17.1410 L24.2695,17.3052 L23.7715,17.4733 L23.3404,17.6032 L22.9657,17.7045 L22.5254,17.8098 L22.0878,17.9001 L21.7157,17.9658 L21.2836,18.0293 L20.8489,18.0797 L20.4164,18.1166 L19.8026,18.1473 L19.1334,18.1529 L18.4711,18.1312 L17.8271,18.0855 L17.1855,18.0175 L16.4417,17.9132 L15.7023,17.7853 L14.9666,17.6374 L14.2338,17.4731 L13.3989,17.2695 L10.2220,16.4316 L8.9030,16.1041 L8.9768,15.6592 Z" fill="#fff3d4" opacity="0.0920" />
      <path d="M7.9778,21.6867 L9.4898,21.8762 L11.9992,22.2172 L13.2449,22.3709 L14.4906,22.4966 L15.4701,22.5666 L13.2414,22.4847 L11.5355,22.4543 L10.6736,22.4528 L9.8047,22.4621 L8.9280,22.4834 L7.8383,22.5284 L7.9778,21.6867 Z M15.4701,22.5666 L16.1653,22.5987 L15.4701,22.5666 Z M16.1653,22.5987 L17.0000,22.6130 L17.4226,22.6094 L18.2729,22.5784 L18.7010,22.5499 L19.5639,22.4650 L19.9990,22.4075 L20.4369,22.3393 L20.8776,22.2601 L21.3213,22.1693 L21.7682,22.0665 L22.2184,21.9511 L22.6722,21.8228 L23.1297,21.6810 L23.5911,21.5253 L24.0565,21.3552 L24.5260,21.1703 L25.9346,20.5749 L26.8350,20.2212 L27.2731,20.0595 L28.1262,19.7660 L28.5418,19.6337 L29.3524,19.3978 L29.7479,19.2938 L30.5207,19.1131 L30.8985,19.0361 L31.6382,18.9082 L32.0007,18.8570 L32.7122,18.7794 L33.4074,18.7341 L34.0885,18.7198 L34.7577,18.7356 L35.4169,18.7803 L36.0684,18.8530 L36.7531,18.9595 L37.3332,22.6620 L36.5294,22.6100 L35.9050,22.5854 L34.9800,22.5716 L34.0612,22.5813 L32.5185,22.6367 L29.2401,22.8134 L27.7970,22.8769 L26.2464,22.9192 L24.5722,22.9287 L22.8740,22.9009 L21.1924,22.8442 L19.5212,22.7684 L16.1653,22.5987 Z" fill="#895725" opacity="0.1419" />
      <path d="M8.0797,21.0717 L9.3071,21.2250 L12.6994,21.6796 L13.7433,21.7991 L14.7264,21.8904 L15.8338,21.9607 L16.8220,21.9873 L17.3189,21.9860 L17.8185,21.9739 L18.7319,21.9220 L19.2194,21.8774 L19.6481,21.8281 L20.1411,21.7591 L20.5756,21.6872 L21.0135,21.6040 L21.5087,21.4968 L21.9911,21.3786 L22.4159,21.2632 L23.1511,21.0376 L23.8966,20.7752 L24.4636,20.5528 L25.5626,20.0850 L26.3249,19.7764 L27.1256,19.4737 L27.9596,19.1839 L28.8135,18.9167 L29.6403,18.6892 L30.4421,18.5000 L31.2194,18.3485 L31.7698,18.2615 L32.2796,18.1966 L32.7818,18.1480 L33.2764,18.1152 L33.7633,18.0979 L34.2429,18.0958 L34.7461,18.1099 L35.2491,18.1407 L35.9339,18.2091 L36.6519,18.3134 L36.7254,18.7828 L36.0391,18.6759 L35.2998,18.5959 L34.5492,18.5526 L33.8179,18.5468 L33.0912,18.5762 L32.3475,18.6416 L31.5818,18.7446 L30.8139,18.8821 L30.0852,19.0423 L29.3976,19.2186 L28.6229,19.4442 L27.8673,19.6895 L27.1578,19.9409 L26.4268,20.2198 L25.7362,20.5001 L24.6504,20.9625 L24.0895,21.1831 L23.3498,21.4453 L22.6198,21.6724 L22.1386,21.8050 L21.6620,21.9231 L21.1727,22.0307 L20.7323,22.1161 L20.2321,22.2000 L19.7350,22.2702 L19.2414,22.3272 L18.7512,22.3716 L18.0831,22.4134 L17.4006,22.4348 L16.7173,22.4361 L15.9759,22.4169 L15.2390,22.3786 L14.4419,22.3182 L13.6359,22.2402 L12.7070,22.1339 L11.6545,21.9985 L9.2504,21.6714 L8.0060,21.5161 L8.0797,21.0717 Z" fill="#fff3d4" opacity="0.0920" />
      <path d="M6.7712,28.9661 L7.3586,29.0699 L8.2169,29.2454 L9.0672,29.4412 L9.9061,29.6505 L8.9280,29.5863 L8.0427,29.5537 L7.1481,29.5470 L6.6736,29.5550 L6.7712,28.9661 Z M9.9061,29.6505 L12.4147,30.3160 L13.6599,30.6324 L14.4906,30.8249 L14.9066,30.9134 L15.7407,31.0719 L16.1593,31.1403 L17.0000,31.2523 L17.4226,31.2944 L17.8468,31.3263 L18.2729,31.3474 L18.7010,31.3570 L19.1312,31.3543 L19.5639,31.3386 L19.9990,31.3094 L20.6377,31.2391 L19.5212,31.0831 L18.6875,30.9537 L14.9285,30.3142 L13.2414,30.0439 L12.3912,29.9221 L11.5355,29.8127 L10.6736,29.7185 L9.9061,29.6505 Z M20.6377,31.2391 L20.8776,31.2072 L21.3213,31.1329 L21.7682,31.0422 L22.2184,30.9344 L22.6722,30.8088 L23.1297,30.6648 L23.5911,30.5016 L24.0565,30.3185 L24.5260,30.1149 L25.9346,29.4346 L26.8350,29.0112 L27.7034,28.6198 L28.5418,28.2605 L29.3524,27.9333 L29.7479,27.7818 L30.5207,27.5028 L31.2709,27.2560 L32.0007,27.0414 L32.7122,26.8590 L33.0617,26.7799 L33.7496,26.6459 L34.4245,26.5443 L35.0884,26.4750 L35.7435,26.4380 L36.3919,26.4334 L37.0356,26.4613 L37.3564,26.4873 L37.9435,26.5568 L38.4532,29.8094 L37.8092,29.8057 L37.1633,29.8287 L36.5294,29.8757 L35.5954,29.9848 L34.9800,30.0792 L34.0612,30.2458 L33.1393,30.4340 L31.2501,30.8361 L29.9280,31.0919 L29.2401,31.2075 L28.5306,31.3110 L27.7970,31.3995 L27.0365,31.4702 L26.2464,31.5202 L25.4241,31.5466 L25.0000,31.5500 L24.1458,31.5365 L23.2968,31.4977 L22.4523,31.4364 L21.6116,31.3552 L20.6377,31.2391 Z" fill="#895725" opacity="0.1321" />
      <path d="M6.8726,28.3542 L7.8655,28.5408 L8.9151,28.7736 L10.0892,29.0653 L12.5439,29.7173 L13.5269,29.9683 L14.5708,30.2121 L15.5538,30.4102 L16.1070,30.5046 L16.6615,30.5848 L17.2183,30.6492 L17.7158,30.6921 L18.2208,30.7203 L18.7313,30.7323 L19.2444,30.7264 L19.6950,30.7058 L20.1332,30.6716 L20.5729,30.6226 L21.0158,30.5578 L21.4589,30.4773 L21.8929,30.3830 L22.3291,30.2724 L22.7691,30.1445 L23.2101,29.9997 L23.7673,29.7929 L24.3297,29.5565 L24.7090,29.3814 L26.0665,28.7224 L27.0724,28.2554 L28.1447,27.7838 L29.0719,27.4021 L30.0635,27.0258 L30.9241,26.7303 L31.8038,26.4628 L32.6251,26.2486 L33.1207,26.1375 L33.6089,26.0424 L34.0899,25.9634 L34.5859,25.8981 L35.0907,25.8492 L35.5292,25.8216 L36.0266,25.8072 L36.4586,25.8098 L37.1319,25.8426 L37.8431,25.9158 L37.9157,26.3793 L37.2360,26.3023 L36.5579,26.2625 L35.8863,26.2590 L35.2086,26.2912 L34.5197,26.3591 L33.7914,26.4670 L33.0625,26.6098 L32.3156,26.7896 L31.5202,27.0147 L30.6862,27.2838 L29.8243,27.5932 L28.9312,27.9432 L28.0036,28.3339 L27.0382,28.7653 L26.1457,29.1830 L24.9104,29.7839 L24.5327,29.9585 L23.9700,30.1963 L23.3525,30.4266 L22.9145,30.5704 L22.4742,30.6990 L22.0367,30.8112 L21.5416,30.9196 L21.1016,30.9996 L20.6587,31.0650 L20.2184,31.1153 L19.7200,31.1551 L19.1457,31.1789 L18.5084,31.1791 L17.8778,31.1537 L17.2524,31.1046 L16.6301,31.0342 L15.9491,30.9347 L15.2107,30.8035 L14.4750,30.6518 L13.7927,30.4957 L12.9875,30.2969 L10.1606,29.5488 L9.0592,29.2707 L7.8899,29.0055 L7.3497,28.8972 L6.7991,28.7979 L6.8726,28.3542 Z" fill="#fff3d4" opacity="0.0920" />
      <path d="M5.4339,37.0346 L6.0529,37.1098 L6.4908,37.1740 L7.3586,37.3251 L8.2169,37.5030 L8.6430,37.6008 L9.4898,37.8118 L10.3305,38.0401 L11.1666,38.2817 L14.4906,39.3048 L15.7407,39.6774 L17.0000,40.0237 L17.8468,40.2335 L18.2729,40.3306 L19.1312,40.5070 L19.5639,40.5852 L20.4369,40.7195 L21.3213,40.8208 L21.7682,40.8579 L22.2184,40.8854 L22.6722,40.9027 L23.1297,40.9093 L23.5911,40.9049 L24.0565,40.8888 L24.5260,40.8607 L25.0000,40.8200 L25.4717,40.7694 L25.9346,40.7121 L26.8350,40.5788 L27.7034,40.4232 L28.5418,40.2480 L28.9504,40.1540 L29.7479,39.9550 L30.5207,39.7437 L31.2709,39.5231 L32.7122,39.0656 L35.4169,38.1664 L36.0684,37.9619 L36.7142,37.7714 L37.3564,37.5976 L37.9973,37.4437 L38.6387,37.3123 L38.9604,37.2561 L39.6056,37.1643 L39.7315,37.9680 L39.1481,38.0196 L38.8067,38.0622 L38.1376,38.1701 L37.4846,38.3057 L37.1633,38.3828 L36.5294,38.5532 L35.9050,38.7426 L34.9800,39.0545 L32.2053,40.0815 L31.2501,40.4152 L30.2647,40.7249 L29.5865,40.9124 L29.2401,40.9991 L28.5306,41.1562 L28.1670,41.2259 L27.4203,41.3450 L27.0365,41.3936 L26.2464,41.4668 L25.8395,41.4905 L25.0000,41.5100 L24.5722,41.5050 L23.7207,41.4667 L23.2968,41.4341 L22.4523,41.3441 L21.6116,41.2238 L21.1924,41.1533 L20.3559,40.9937 L19.1043,40.7140 L17.8541,40.3955 L16.6029,40.0495 L13.6647,39.1973 L12.3912,38.8394 L11.1054,38.5021 L10.2401,38.2940 L9.3673,38.1031 L8.9280,38.0153 L8.0427,37.8565 L7.5966,37.7865 L6.6971,37.6673 L6.2435,37.6189 L5.3488,37.5480 L5.4339,37.0346 Z" fill="#895725" opacity="0.1081" />
      <path d="M5.5360,36.4185 L6.4179,36.5353 L7.3870,36.7015 L8.3550,36.9033 L9.4134,37.1596 L10.3387,37.4087 L11.3177,37.6918 L14.6582,38.7207 L15.9053,39.0906 L17.1604,39.4327 L18.2466,39.6943 L18.8551,39.8238 L19.4671,39.9400 L20.0836,40.0417 L20.6431,40.1196 L21.2079,40.1837 L21.7583,40.2316 L22.3028,40.2643 L22.8516,40.2818 L23.5294,40.2813 L24.2164,40.2554 L24.8500,40.2083 L25.5590,40.1326 L26.3121,40.0324 L27.1022,39.9055 L27.8678,39.7612 L28.6387,39.5954 L29.2842,39.4413 L29.9130,39.2784 L30.5871,39.0907 L31.3039,38.8779 L32.5549,38.4804 L35.1855,37.6047 L36.4102,37.2248 L36.9391,37.0753 L37.4365,36.9453 L37.9348,36.8272 L38.4342,36.7224 L38.9976,36.6222 L39.5093,36.5494 L39.5790,36.9942 L38.9323,37.0888 L38.3087,37.2065 L37.6236,37.3624 L36.8552,37.5654 L36.2133,37.7530 L35.4838,37.9813 L32.6050,38.9376 L31.3225,39.3426 L30.6101,39.5522 L29.9385,39.7373 L29.2484,39.9136 L28.6042,40.0646 L27.8401,40.2256 L27.0585,40.3695 L26.2508,40.4958 L25.4816,40.5947 L24.7703,40.6671 L24.1449,40.7096 L23.5262,40.7310 L22.8535,40.7314 L22.1892,40.7091 L21.5337,40.6654 L20.9155,40.6052 L20.2278,40.5175 L19.5465,40.4104 L18.8719,40.2859 L18.1434,40.1323 L17.3692,39.9496 L16.4163,39.7009 L15.4708,39.4334 L14.4266,39.1206 L11.2499,38.1412 L10.2784,37.8591 L9.3637,37.6115 L8.3186,37.3565 L7.3492,37.1523 L6.3820,36.9847 L5.4624,36.8629 L5.5360,36.4185 Z" fill="#fff3d4" opacity="0.0920" />
    </g>
    <path fill="#211810" fill-rule="nonzero" d="M31.403 13.375C31.082 14.151 30.469 15.431 29.989 16.365C29.562 16.311 29.082 16.311 28.575 16.338C28.468 15.831 28.388 15.298 28.361 14.764C28.841 14.711 29.215 14.551 29.375 14.364L26.574 12.303L25.213 13.777L11.447 13.777L11.687 14.524L25.533 14.524C25.934 18.979 27.348 22.714 31.376 24.368C32.656 24.982 34.257 25.222 34.844 24.128C35.138 23.568 34.924 22.981 34.150 22.181L34.311 19.326L34.017 19.273C33.777 20.100 33.457 20.927 33.163 21.487C33.003 21.754 32.897 21.807 32.496 21.674C30.335 21.007 29.162 18.979 28.655 16.765C29.749 17.485 31.029 18.712 31.563 19.753C33.644 20.580 34.657 17.352 31.002 16.525C31.803 16.151 32.656 15.751 33.137 15.458C33.697 15.591 33.937 15.484 34.070 15.271L31.403 13.375M31.082 24.528C30.842 25.302 30.389 26.636 29.989 27.623C29.588 27.570 29.135 27.543 28.655 27.543C28.495 26.689 28.415 25.836 28.388 25.009C28.868 24.929 29.242 24.768 29.402 24.582L26.601 22.474L25.213 23.968L23.186 23.968L23.186 16.285C23.799 16.178 23.986 15.938 24.039 15.591L20.144 15.218L20.144 17.058L16.863 15.218C15.556 16.925 12.701 19.299 10.113 20.687L10.273 20.980C11.661 20.660 13.048 20.233 14.355 19.726L14.355 23.968L9.900 23.968L10.140 24.742L14.355 24.742C14.329 28.827 13.688 33.333 9.927 36.453L10.167 36.720C16.089 34.132 17.263 29.176 17.343 24.742L20.144 24.742L20.144 36.720L20.731 36.720C21.852 36.720 23.186 36.027 23.186 35.733L23.186 24.742L25.533 24.742C25.880 29.899 27.214 34.266 31.456 36.107C32.710 36.802 34.311 37.127 34.951 36.053C35.271 35.520 35.084 34.879 34.311 34.026L34.471 30.891L34.204 30.864C33.910 31.743 33.617 32.591 33.323 33.227C33.190 33.519 33.030 33.546 32.630 33.386C30.469 32.618 29.295 30.489 28.761 28.103C29.935 28.908 31.189 30.195 31.723 31.265C33.884 32.167 34.924 28.854 31.002 27.836C31.776 27.330 32.630 26.823 33.137 26.449C33.750 26.529 33.990 26.422 34.097 26.182L31.082 24.528M17.343 23.968L17.343 19.966C18.010 19.860 18.224 19.593 18.277 19.246L16.009 19.033C17.130 18.526 18.117 17.992 18.891 17.485C19.477 17.592 19.878 17.539 20.144 17.379L20.144 23.968L17.343 23.968" />
  </g>
</svg>
