<?xml version="1.0" encoding="UTF-8"?>
<svg xmlns="http://www.w3.org/2000/svg" width="45" height="45" viewBox="0 0 45 45">
  <title>先手 桂</title>
  <defs>
    <linearGradient id="surface" x1="0%" y1="0%" x2="0%" y2="100%">
      <stop offset="0%" stop-color="#f6dec0" />
      <stop offset="100%" stop-color="#c7936b" />
    </linearGradient>
  </defs>
  <g transform="matrix(0.90476,0,0,0.90476,2.1426631,2.1410436)">
    <polygon points="4.48,42.79 40.52,43 34.84,6.75 22.76,2 10.47,6.65 " fill="url(#surface)" stroke="#916548" stroke-width="0.55" />
    <g>
      <path d="M6.6466,29.7180 L6.6877,32.3613 L6.7144,35.4566 L6.7115,38.5510 L6.6855,40.8674 L6.6452,42.8026 L6.4212,42.8013 L6.4727,40.0907 L6.4930,37.0010 L6.4801,33.9069 L6.4432,30.9453 L6.6466,29.7180 Z" fill="#885232" opacity="0.0590" />
      <path d="M7.9240,22.0112 L8.0370,29.2710 L8.0826,33.9082 L8.0915,36.2299 L8.0884,38.5500 L8.0711,40.8661 L8.0438,42.8108 L7.8637,42.8097 L7.9043,39.3201 L7.9119,37.0018 L7.9068,34.6810 L7.8665,30.0425 L7.7603,22.9984 L7.9240,22.0112 Z" fill="#885232" opacity="0.0503" />
      <path d="M9.7435,11.0334 L9.7660,13.3764 L9.8134,16.3386 L10.0653,27.7299 L10.1208,30.8151 L10.1509,33.1348 L10.1701,36.2305 L10.1651,38.5509 L10.1401,40.8674 L10.1009,42.8228 L9.8728,42.8214 L9.9228,40.0908 L9.9407,37.7741 L9.9397,35.4541 L9.9140,32.3601 L9.8370,27.7300 L9.5995,17.0847 L9.5291,12.6403 L9.5262,12.3445 L9.7435,11.0334 Z" fill="#885232" opacity="0.0786" />
      <path d="M11.8858,6.1143 L11.8646,7.5889 L11.8576,9.7357 L11.8744,11.9113 L11.9110,14.1131 L12.0046,17.8341 L12.2466,25.4251 L12.3371,28.5001 L12.4093,31.5880 L12.4458,33.9086 L12.4626,36.2305 L12.4555,38.5509 L12.4205,40.8673 L12.3652,42.8359 L12.2051,42.8350 L12.2420,41.6321 L12.2755,40.0908 L12.3006,37.7742 L12.2992,35.4542 L12.2631,32.3601 L12.2157,30.0424 L12.1554,27.7299 L11.8896,19.3382 L11.8028,16.3379 L11.7507,14.1116 L11.7142,11.9088 L11.6970,9.0127 L11.7045,7.5839 L11.7244,6.1754 L11.8858,6.1143 Z" fill="#885232" opacity="0.0744" />
      <path d="M13.9271,5.3420 L13.9070,6.8791 L13.8967,9.0160 L13.9034,11.1825 L13.9244,13.3761 L13.9982,17.8340 L14.2246,28.5001 L14.2735,31.5878 L14.2980,33.9083 L14.3091,36.2299 L14.3039,38.5501 L14.2796,40.8662 L14.2411,42.8469 L14.1001,42.8461 L14.1489,40.0918 L14.1665,37.7749 L14.1660,35.4546 L14.1419,32.3603 L14.0690,27.7299 L13.8287,16.3380 L13.7930,14.1120 L13.7679,11.9093 L13.7561,9.7328 L13.7570,8.2975 L13.7851,5.3957 L13.9271,5.3420 Z" fill="#885232" opacity="0.0766" />
      <path d="M15.1517,4.8787 L15.1203,6.8793 L15.1083,9.0161 L15.1147,11.1826 L15.1366,13.3761 L15.2146,17.8340 L15.4569,28.5001 L15.5099,31.5878 L15.5368,33.9083 L15.5493,36.2300 L15.5446,38.5502 L15.5196,40.8664 L15.4793,42.8541 L15.3363,42.8533 L15.3766,40.8628 L15.4016,38.5476 L15.4062,36.2282 L15.3861,33.1337 L15.3551,30.8146 L15.2982,27.7299 L15.0414,16.3380 L15.0036,14.1119 L14.9773,11.9093 L14.9655,9.7327 L14.9671,8.2974 L14.9773,6.8756 L15.0075,4.9332 L15.1517,4.8787 Z" fill="#885232" opacity="0.0577" />
      <path d="M17.7945,3.8787 L17.7749,6.1733 L17.7674,8.2999 L17.7762,12.6418 L17.8081,17.0851 L17.9210,28.5001 L17.9551,33.9082 L17.9574,38.5498 L17.9273,42.8684 L17.7053,42.8671 L17.7287,40.0922 L17.7372,37.7751 L17.7261,32.3604 L17.6922,27.7299 L17.5796,16.3381 L17.5481,11.1810 L17.5469,7.5853 L17.5715,3.9631 L17.7945,3.8787 Z" fill="#885232" opacity="0.0701" />
      <path d="M19.6880,3.1623 L19.6553,4.7751 L19.6303,6.8796 L19.6218,9.0163 L19.6275,11.1827 L19.6450,13.3762 L19.6829,16.3385 L19.8828,27.7299 L19.9434,32.3611 L19.9634,35.4563 L19.9637,37.7774 L19.9490,40.0953 L19.9076,42.8799 L19.6855,42.8786 L19.7270,40.0913 L19.7417,37.7745 L19.7413,35.4544 L19.7213,32.3602 L19.6607,27.7299 L19.4607,16.3380 L19.4229,13.3749 L19.4054,11.1805 L19.3997,9.0132 L19.4083,6.8753 L19.4334,4.7695 L19.4638,3.2471 L19.6880,3.1623 Z" fill="#885232" opacity="0.0687" />
      <path d="M20.9227,2.6952 L20.8618,4.7761 L20.8270,6.8803 L20.8148,9.0169 L20.8220,11.1831 L20.8455,13.3765 L20.8967,16.3386 L21.1687,27.7299 L21.2286,30.8151 L21.2611,33.1348 L21.2819,36.2305 L21.2764,38.5510 L21.2495,40.8675 L21.2054,42.8875 L20.9883,42.8862 L21.0325,40.8617 L21.0594,38.5468 L21.0648,36.2276 L21.0439,33.1334 L21.0114,30.8145 L20.9514,27.7300 L20.6794,16.3379 L20.6283,13.3746 L20.6049,11.1802 L20.5977,9.0126 L20.6100,6.8745 L20.6449,4.7685 L20.7027,2.7784 L20.9227,2.6952 Z" fill="#885232" opacity="0.0477" />
      <path d="M23.4614,2.2758 L23.4338,4.0799 L23.4139,6.1734 L23.4047,8.2999 L23.4066,11.1823 L23.4396,16.3384 L23.5620,27.7299 L23.6042,33.1344 L23.6141,36.2297 L23.6120,38.5497 L23.5809,42.9013 L23.3779,42.9001 L23.4090,38.5480 L23.4110,36.2285 L23.4012,33.1338 L23.3590,27.7299 L23.2365,16.3381 L23.2036,11.1810 L23.2017,8.2979 L23.2109,6.1706 L23.2308,4.0764 L23.2597,2.1965 L23.4614,2.2758 Z" fill="#885232" opacity="0.0646" />
      <path d="M25.1944,2.9572 L25.1722,4.7732 L25.1574,6.8781 L25.1561,11.1820 L25.1894,16.3383 L25.3087,27.7299 L25.3447,32.3608 L25.3564,35.4557 L25.3565,37.7764 L25.3475,40.0940 L25.3221,42.9114 L25.1971,42.9107 L25.2225,40.0926 L25.2315,37.7755 L25.2314,35.4550 L25.2197,32.3605 L25.1837,27.7299 L25.0643,16.3382 L25.0310,11.1813 L25.0324,6.8767 L25.0472,4.7713 L25.0701,2.9084 L25.1944,2.9572 Z" fill="#885232" opacity="0.0415" />
      <path d="M27.1721,3.7349 L27.1455,5.4720 L27.1282,7.5877 L27.1247,9.7348 L27.1381,12.6420 L27.1975,17.8340 L27.3621,28.5001 L27.3979,31.5878 L27.4160,33.9082 L27.4243,36.2298 L27.4208,38.5499 L27.4035,40.8660 L27.3746,42.9234 L27.2056,42.9224 L27.2345,40.8631 L27.2518,38.5478 L27.2553,36.2284 L27.2419,33.1337 L27.1825,27.7299 L27.0079,16.3381 L26.9751,13.3751 L26.9600,11.1809 L26.9554,9.0137 L26.9633,6.8760 L27.0043,3.6689 L27.1721,3.7349 Z" fill="#885232" opacity="0.0518" />
      <path d="M28.8687,4.4020 L28.8460,6.1738 L28.8336,8.3002 L28.8347,10.4572 L28.8536,13.3761 L28.9089,17.8340 L29.0782,28.5001 L29.1148,31.5878 L29.1331,33.9083 L29.1412,36.2299 L29.1372,38.5501 L29.1189,40.8663 L29.0885,42.9334 L28.8995,42.9323 L28.9299,40.8629 L28.9482,38.5477 L28.9522,36.2282 L28.9389,33.1337 L28.8783,27.7299 L28.6985,16.3380 L28.6645,13.3750 L28.6487,11.1808 L28.6471,7.5849 L28.6808,4.3281 L28.8687,4.4020 Z" fill="#885232" opacity="0.0707" />
      <path d="M30.8601,5.1851 L30.8412,9.0155 L30.8576,13.3759 L30.9006,17.8340 L31.0320,28.5001 L31.0744,33.9081 L31.0774,38.5497 L31.0631,40.8657 L31.0393,42.9448 L30.8823,42.9438 L30.9122,40.0923 L30.9226,37.7752 L30.9225,35.4549 L30.9087,32.3604 L30.8666,27.7299 L30.7271,16.3381 L30.6915,11.9096 L30.6850,8.2980 L30.7037,5.1236 L30.8601,5.1851 Z" fill="#885232" opacity="0.0382" />
      <path d="M32.5649,5.8554 L32.5518,9.7348 L32.5745,14.1127 L32.6137,17.8340 L32.7514,28.5001 L32.7958,33.9082 L32.7991,38.5499 L32.7841,40.8659 L32.7590,42.9548 L32.5699,42.9537 L32.6015,40.0921 L32.6124,37.7750 L32.6122,35.4548 L32.5977,32.3604 L32.5535,27.7299 L32.4073,16.3381 L32.3701,11.9095 L32.3624,9.0138 L32.3765,5.7813 L32.5649,5.8554 Z" fill="#885232" opacity="0.0535" />
      <path d="M33.9497,6.3999 L33.9376,9.7348 L33.9464,11.9107 L33.9655,14.1128 L34.0146,17.8340 L34.1887,28.5001 L34.2266,31.5878 L34.2457,33.9082 L34.2545,36.2298 L34.2508,38.5499 L34.2325,40.8659 L34.2012,42.9632 L34.0492,42.9623 L34.0805,40.8632 L34.0987,38.5479 L34.1024,36.2284 L34.0883,33.1338 L34.0254,27.7299 L33.8407,16.3381 L33.7943,11.9095 L33.7853,9.0137 L33.7982,6.3404 L33.9497,6.3999 Z" fill="#885232" opacity="0.0683" />
      <path d="M35.9096,13.5761 L35.9591,17.8341 L36.1191,28.5001 L36.1670,33.1346 L36.1804,36.2300 L36.1774,38.5503 L36.1611,40.8665 L36.1328,42.9744 L35.8977,42.9731 L35.9261,40.8627 L35.9424,38.5475 L35.9453,36.2281 L35.9319,33.1336 L35.8737,27.7300 L35.7042,16.3380 L35.6627,12.0005 L35.9096,13.5761 Z" fill="#885232" opacity="0.0580" />
      <path d="M37.6414,24.6289 L37.7722,30.0428 L37.8124,32.3611 L37.8383,34.6823 L37.8465,37.0039 L37.8335,39.3231 L37.8114,40.8667 L37.7610,42.9839 L37.6140,42.9831 L37.6644,40.8625 L37.6865,39.3196 L37.6994,37.0014 L37.6911,34.6808 L37.6652,32.3602 L37.6249,30.0424 L37.5551,26.9607 L37.4630,23.4903 L37.6414,24.6289 Z" fill="#885232" opacity="0.0719" />
      <path d="M40.0757,40.1646 L40.0360,42.9972 L39.8370,42.9960 L39.8694,40.8628 L39.8857,38.9520 L40.0757,40.1646 Z" fill="#885232" opacity="0.0425" />
      <path d="M9.9072,10.0459 L10.3160,10.1282 L9.9019,10.0775 L9.9072,10.0459 Z M10.3160,10.1282 L14.4906,11.0114 L15.7407,11.2485 L16.5790,11.3889 L17.4226,11.5112 L17.8468,11.5645 L18.7010,11.6530 L19.5639,11.7148 L20.3068,11.7428 L19.1043,11.5722 L17.8541,11.3722 L14.0869,10.7109 L12.8170,10.4956 L11.5355,10.2955 L10.3160,10.1282 Z M20.3068,11.7428 L20.8776,11.7497 L21.3213,11.7442 L22.2184,11.7050 L22.6722,11.6703 L23.1297,11.6251 L23.5911,11.5689 L24.0565,11.5013 L24.5260,11.4218 L25.4717,11.2318 L26.8350,10.9371 L28.1262,10.6457 L31.2709,9.9170 L32.7122,9.5981 L34.0885,9.3230 L35.2133,9.1326 L35.4290,10.5092 L34.6735,10.6538 L34.0612,10.7812 L31.5714,11.3250 L30.2647,11.5832 L29.5865,11.7003 L28.8882,11.8061 L28.1670,11.8982 L27.4203,11.9740 L26.6453,12.0313 L25.8395,12.0674 L25.0000,12.0800 L24.1458,12.0674 L23.2968,12.0310 L22.4523,11.9732 L21.6116,11.8961 L20.3068,11.7428 Z" fill="#885232" opacity="0.0905" />
      <path d="M10.0081,9.4366 L11.0044,9.6413 L13.3943,10.1545 L14.5330,10.3904 L15.7781,10.6266 L16.8214,10.7987 L17.4513,10.8881 L17.9788,10.9533 L18.5860,11.0167 L19.1350,11.0623 L19.6873,11.0961 L20.1815,11.1155 L20.7420,11.1246 L21.2448,11.1208 L22.0827,11.0881 L22.9220,11.0210 L23.7738,10.9166 L24.5783,10.7835 L25.6575,10.5625 L27.0065,10.2684 L31.2250,9.2965 L32.4935,9.0146 L33.8826,8.7325 L35.0575,8.5285 L35.1172,8.5193 L35.1869,8.9640 L34.6250,9.0558 L33.9564,9.1767 L32.5783,9.4570 L31.3169,9.7376 L27.1035,10.7080 L25.7510,11.0027 L24.6683,11.2244 L23.8591,11.3586 L23.0003,11.4650 L22.1550,11.5343 L21.2564,11.5706 L20.5656,11.5732 L19.8194,11.5524 L19.0808,11.5093 L18.3501,11.4459 L17.6069,11.3618 L16.7572,11.2440 L15.9135,11.1072 L15.0747,10.9547 L13.7189,10.6829 L11.0156,10.1036 L9.9345,9.8807 L10.0081,9.4366 Z" fill="#fff3d4" opacity="0.0840" />
      <path d="M8.6440,17.6667 L9.9108,17.8932 L12.8299,18.4497 L14.0751,18.6653 L14.9066,18.7906 L15.7407,18.8963 L16.5790,18.9780 L17.0000,19.0085 L17.8468,19.0462 L18.7010,19.0493 L19.1312,19.0365 L19.5639,19.0134 L19.9990,18.9795 L20.4369,18.9342 L20.8776,18.8771 L21.3213,18.8075 L21.7682,18.7250 L22.2184,18.6291 L22.5174,18.5566 L21.1924,18.4666 L19.9383,18.3567 L18.2708,18.1847 L14.0869,17.7222 L12.3912,17.5640 L11.1054,17.4696 L9.8047,17.4032 L8.6925,17.3741 L8.6440,17.6667 Z M22.5174,18.5566 L23.1297,18.3945 L23.5911,18.2549 L24.0565,18.0996 L24.5260,17.9281 L25.9346,17.3621 L26.8350,17.0149 L28.1262,16.5509 L28.9504,16.2792 L29.7479,16.0371 L30.5207,15.8244 L30.8985,15.7291 L31.6382,15.5600 L32.3586,15.4196 L33.0617,15.3076 L33.7496,15.2238 L34.4245,15.1678 L35.0884,15.1395 L35.7435,15.1384 L36.1566,15.1524 L36.5402,17.6010 L35.5954,17.6490 L34.9800,17.6981 L34.3673,17.7586 L33.1393,17.9053 L30.9255,18.2011 L29.9280,18.3248 L28.8882,18.4363 L27.7970,18.5287 L27.0365,18.5761 L26.2464,18.6098 L25.0000,18.6300 L23.7207,18.6097 L22.5174,18.5566 Z" fill="#885232" opacity="0.1146" />
      <path d="M8.7453,17.0557 L9.8461,17.2523 L12.3524,17.7320 L13.3864,17.9211 L14.5220,18.1075 L15.5561,18.2484 L16.1786,18.3163 L16.6992,18.3619 L17.2218,18.3962 L17.7468,18.4184 L18.2600,18.4273 L18.7450,18.4235 L19.2319,18.4070 L19.7215,18.3770 L20.1525,18.3390 L20.5864,18.2895 L21.0237,18.2279 L21.4583,18.1550 L21.8794,18.0729 L22.3028,17.9787 L22.7289,17.8721 L23.0966,17.7703 L23.6530,17.5988 L24.2159,17.4038 L24.6588,17.2353 L25.7366,16.7986 L26.6452,16.4461 L27.5223,16.1238 L28.3696,15.8316 L29.2897,15.5386 L30.0801,15.3096 L30.9409,15.0873 L31.6924,14.9187 L32.2651,14.8078 L32.7659,14.7240 L33.2591,14.6542 L33.7450,14.5982 L34.2237,14.5561 L34.7263,14.5264 L35.1664,14.5130 L35.6654,14.5122 L36.0579,14.5225 L36.1289,14.9756 L35.5675,14.9608 L34.9462,14.9683 L34.3146,15.0007 L33.7160,15.0535 L33.1079,15.1282 L32.4878,15.2253 L31.8530,15.3451 L31.1359,15.5033 L30.4805,15.6675 L29.7102,15.8823 L29.0160,16.0942 L28.1972,16.3642 L27.4569,16.6251 L26.5814,16.9517 L24.4578,17.7941 L23.8977,17.9913 L23.2816,18.1844 L22.8542,18.3037 L22.4303,18.4105 L22.0099,18.5051 L21.5338,18.5986 L21.1050,18.6707 L20.6721,18.7320 L20.2415,18.7818 L19.7524,18.8254 L19.0853,18.8633 L18.4248,18.8773 L17.7343,18.8682 L17.0939,18.8397 L16.3513,18.7843 L15.6128,18.7080 L14.8778,18.6137 L14.0410,18.4876 L12.6859,18.2520 L9.8701,17.7145 L8.6717,17.4996 L8.7453,17.0557 Z" fill="#fff3d4" opacity="0.0840" />
      <path d="M7.2093,26.3231 L8.2169,26.5383 L9.2878,26.8045 L8.4864,26.7420 L8.0427,26.7169 L7.1489,26.6874 L7.2093,26.3231 Z M9.2878,26.8045 L10.3305,27.0883 L12.8299,27.8066 L14.0751,28.1457 L14.9066,28.3516 L15.3232,28.4464 L16.1593,28.6162 L16.5790,28.6898 L17.4226,28.8111 L17.8468,28.8573 L18.2729,28.8929 L18.7010,28.9174 L19.1312,28.9299 L19.5639,28.9297 L19.9990,28.9163 L20.4369,28.8888 L21.0508,28.8242 L19.9383,28.6559 L18.6875,28.4363 L17.4373,28.1952 L14.0869,27.5229 L13.2414,27.3642 L12.3912,27.2150 L11.5355,27.0784 L10.6736,26.9574 L9.8047,26.8548 L9.2878,26.8045 Z M21.0508,28.8242 L21.3213,28.7891 L21.7682,28.7154 L22.2184,28.6249 L22.6722,28.5169 L23.1297,28.3907 L23.5911,28.2456 L24.0565,28.0809 L24.5260,27.8959 L25.0000,27.6900 L26.3889,27.0666 L27.2731,26.6810 L28.1262,26.3200 L28.9504,25.9843 L30.1372,25.5289 L30.8985,25.2584 L31.6382,25.0148 L32.3586,24.7987 L33.0617,24.6107 L33.7496,24.4513 L34.4245,24.3209 L35.0884,24.2202 L35.7435,24.1495 L36.3919,24.1096 L37.0356,24.1007 L37.5614,24.1181 L38.0106,26.9846 L37.4846,27.0139 L36.8450,27.0751 L36.2162,27.1595 L35.5954,27.2641 L34.9800,27.3857 L34.0612,27.5932 L31.5714,28.2185 L30.2647,28.5233 L29.5865,28.6628 L28.8882,28.7894 L28.1670,28.9000 L27.4203,28.9916 L26.6453,29.0608 L25.8395,29.1047 L25.0000,29.1200 L24.5722,29.1161 L23.7207,29.0860 L22.8740,29.0287 L22.0316,28.9470 L21.0508,28.8242 Z" fill="#885232" opacity="0.1120" />
      <path d="M7.3104,25.7129 L8.2318,25.9108 L9.2287,26.1561 L10.3999,26.4741 L12.7333,27.1453 L13.7779,27.4347 L14.8841,27.7151 L15.8675,27.9310 L16.4834,28.0457 L17.0396,28.1335 L17.5986,28.2051 L18.1009,28.2541 L18.6114,28.2880 L19.1237,28.3048 L19.6405,28.3033 L20.1414,28.2836 L20.5811,28.2508 L21.0240,28.2026 L21.4051,28.1488 L21.8388,28.0733 L22.2745,27.9819 L22.7138,27.8736 L23.0943,27.7665 L23.5266,27.6300 L24.0236,27.4530 L24.4626,27.2788 L26.2983,26.4606 L27.4019,25.9811 L28.4587,25.5400 L29.4725,25.1385 L30.4471,24.7777 L31.2940,24.4889 L32.1801,24.2159 L32.9904,23.9968 L33.5399,23.8667 L34.0209,23.7664 L34.5126,23.6779 L34.9543,23.6112 L35.4554,23.5509 L35.8906,23.5124 L36.3230,23.4872 L36.7525,23.4757 L37.4626,23.4874 L37.5336,23.9409 L36.9378,23.9251 L36.3876,23.9348 L35.7755,23.9724 L35.1573,24.0380 L34.5296,24.1312 L33.9204,24.2454 L33.2537,24.3950 L32.5727,24.5723 L31.8097,24.7969 L31.0632,25.0399 L30.2128,25.3408 L29.3324,25.6752 L28.4189,26.0424 L27.3611,26.4880 L26.3670,26.9223 L24.7145,27.6609 L24.2122,27.8625 L23.6526,28.0622 L23.2226,28.1978 L22.7807,28.3211 L22.3409,28.4280 L21.9043,28.5188 L21.4720,28.5938 L21.0300,28.6552 L20.5874,28.7019 L20.1476,28.7338 L19.5218,28.7553 L18.8823,28.7491 L18.2475,28.7167 L17.6198,28.6601 L16.9959,28.5816 L16.3132,28.4725 L15.5729,28.3299 L14.8374,28.1664 L14.0970,27.9837 L13.2299,27.7520 L10.4004,26.9418 L9.3013,26.6402 L8.1928,26.3637 L7.2368,26.1569 L7.3104,25.7129 Z" fill="#fff3d4" opacity="0.0840" />
      <path d="M5.8827,34.3270 L6.9259,34.4041 L7.7888,34.4850 L9.0672,34.6242 L11.7107,34.9306 L10.2401,35.0052 L9.3673,35.0637 L8.4864,35.1341 L7.1481,35.2641 L5.6986,35.4378 L5.8827,34.3270 Z M11.7107,34.9306 L12.8299,35.0433 L14.0751,35.1383 L14.9066,35.1774 L15.7407,35.1926 L16.5790,35.1797 L17.4226,35.1348 L18.2729,35.0537 L18.7010,34.9984 L19.3984,34.8851 L17.0203,34.8565 L14.9285,34.8556 L13.2414,34.8811 L11.7107,34.9306 Z M19.3984,34.8851 L19.9990,34.7673 L20.4369,34.6669 L20.8776,34.5539 L21.3213,34.4279 L21.7682,34.2884 L22.2184,34.1348 L22.6722,33.9666 L23.1297,33.7834 L23.5911,33.5846 L24.0565,33.3698 L24.5260,33.1384 L25.4717,32.6404 L25.9346,32.4056 L26.8350,31.9794 L27.2731,31.7876 L28.1262,31.4453 L28.5418,31.2942 L28.9504,31.1563 L29.3524,31.0311 L29.7479,30.9186 L30.1372,30.8183 L30.5207,30.7302 L30.8985,30.6538 L31.2709,30.5891 L31.6382,30.5357 L32.0007,30.4933 L32.3586,30.4618 L32.7122,30.4408 L33.0617,30.4302 L33.7496,30.4389 L34.0885,30.4577 L34.7577,30.5231 L35.4169,30.6237 L36.0684,30.7576 L36.7142,30.9228 L37.3564,31.1172 L37.9973,31.3389 L38.7379,31.6266 L39.3612,35.6046 L38.4699,35.4300 L37.8092,35.3168 L37.1633,35.2196 L36.5294,35.1373 L35.9050,35.0688 L35.2872,35.0131 L34.6735,34.9689 L33.7547,34.9219 L32.5185,34.8896 L31.2501,34.8839 L26.6453,34.9416 L24.5722,34.9494 L22.4523,34.9318 L19.3984,34.8851 Z" fill="#885232" opacity="0.1049" />
      <path d="M5.9854,33.7075 L6.9433,33.7797 L8.0246,33.8830 L11.4001,34.2702 L12.4473,34.3811 L13.4903,34.4728 L14.4103,34.5314 L15.0246,34.5561 L15.5775,34.5668 L16.1312,34.5654 L16.6865,34.5508 L17.2442,34.5217 L17.7428,34.4827 L18.2935,34.4247 L18.7786,34.3601 L19.2658,34.2817 L19.7558,34.1888 L20.2492,34.0806 L20.6843,33.9726 L21.1228,33.8517 L21.6124,33.7023 L22.0955,33.5398 L22.5210,33.3839 L23.2577,33.0854 L23.9423,32.7752 L24.5102,32.4939 L25.7401,31.8512 L26.2483,31.6032 L26.7467,31.3726 L27.2354,31.1594 L27.7737,30.9398 L28.2420,30.7625 L28.7417,30.5881 L29.1928,30.4444 L29.6995,30.2988 L30.1352,30.1876 L30.6243,30.0786 L31.0446,29.9988 L31.5161,29.9251 L31.9678,29.8706 L32.4139,29.8326 L32.9165,29.8086 L33.4115,29.8049 L33.9590,29.8241 L34.4459,29.8619 L34.9531,29.9221 L35.4559,30.0024 L35.9544,30.1016 L36.5098,30.2346 L37.1002,30.4009 L37.5858,30.5560 L38.0706,30.7261 L38.6303,30.9401 L38.7116,31.4586 L38.2418,31.2713 L37.7651,31.0943 L37.2889,30.9319 L36.7510,30.7671 L36.2627,30.6357 L35.8345,30.5356 L35.3426,30.4388 L34.9084,30.3700 L34.4693,30.3165 L33.9823,30.2762 L33.5037,30.2561 L33.0801,30.2546 L32.5889,30.2720 L32.1518,30.3045 L31.7066,30.3537 L31.2270,30.4241 L30.8127,30.4993 L30.3921,30.5890 L29.9643,30.6936 L29.5915,30.7955 L29.1485,30.9290 L28.7615,31.0563 L28.3339,31.2081 L27.9238,31.3641 L27.1440,31.6883 L26.4009,32.0286 L25.6983,32.3766 L24.5422,32.9823 L23.7354,33.3663 L23.3055,33.5534 L22.8182,33.7511 L22.3353,33.9318 L21.8568,34.0961 L21.3176,34.2636 L20.7605,34.4175 L20.2072,34.5516 L19.6577,34.6666 L19.1125,34.7635 L18.5116,34.8509 L17.9130,34.9187 L17.3509,34.9654 L16.4810,35.0077 L15.6170,35.0169 L14.6980,34.9949 L13.6620,34.9367 L12.8100,34.8674 L11.8367,34.7707 L8.8315,34.4237 L7.7681,34.3091 L6.8004,34.2193 L5.9114,34.1537 L5.9854,33.7075 Z" fill="#fff3d4" opacity="0.0840" />
    </g>
    <path fill="#2c1c16" fill-rule="nonzero" d="M14.117 12.242L14.117 18.673L10.476 18.673L10.686 19.433L13.777 19.433C13.122 23.310 11.838 27.344 9.900 30.304L10.241 30.619C11.760 29.256 13.070 27.685 14.117 25.982L14.117 36.808L14.720 36.808C15.846 36.808 17.104 36.174 17.104 35.910L17.104 23.127C17.732 24.201 18.387 25.641 18.518 26.820C20.693 28.706 23.181 24.436 17.104 22.524L17.104 19.433L20.300 19.433C20.640 19.433 20.928 19.302 20.981 19.014C20.169 18.071 18.675 16.629 18.675 16.629L17.366 18.673L17.104 18.673L17.104 13.395C17.811 13.290 17.994 13.028 18.073 12.635L14.117 12.242M25.093 12.478L25.093 16.944L20.404 16.944L20.614 17.678L25.093 17.678L25.093 22.472L19.619 22.472L19.828 23.205L34.262 23.205C34.602 23.205 34.890 23.074 34.969 22.786C33.895 21.791 32.114 20.324 32.114 20.324L30.516 22.472L28.184 22.472L28.184 17.678L33.371 17.678C33.764 17.678 34.026 17.573 34.105 17.285C33.057 16.261 31.275 14.814 31.275 14.814L29.730 16.944L28.184 16.944L28.184 13.552C28.892 13.447 29.101 13.185 29.154 12.819L25.093 12.478M25.093 23.860L25.093 28.628L19.671 28.628L19.880 29.387L25.093 29.387L25.093 35.255L18.440 35.255L18.649 35.989L34.393 35.989C34.759 35.989 35.021 35.858 35.100 35.569C34.026 34.548 32.245 33.081 32.245 33.081L30.647 35.255L28.184 35.255L28.184 29.387L33.659 29.387C34.000 29.387 34.288 29.256 34.367 28.968C33.319 27.973 31.564 26.532 31.564 26.532L29.992 28.628L28.184 28.628L28.184 24.960C28.892 24.856 29.101 24.594 29.154 24.227L25.093 23.860" />
  </g>
</svg>
