<?xml version="1.0" encoding="UTF-8"?>
<svg xmlns="http://www.w3.org/2000/svg" viewBox="0 0 128 128" width="128" height="128">
    <title>ドックレイアウトをリセット</title>
    
    <!-- メインウィンドウ背景 -->
    <rect x="0" y="0" width="128" height="128" rx="8" fill="#455A64"/>
    
    <!-- タイトルバー -->
    <rect x="0" y="0" width="128" height="20" rx="8" fill="#607D8B"/>
    <circle cx="14" cy="10" r="5" fill="#F44336"/>
    <circle cx="30" cy="10" r="5" fill="#FFC107"/>
    <circle cx="46" cy="10" r="5" fill="#4CAF50"/>
    
    <!-- ドッキングパネル：左サイドバー -->
    <rect x="4" y="24" width="32" height="100" rx="4" fill="#78909C"/>
    <rect x="8" y="28" width="24" height="8" rx="2" fill="#546E7A"/>
    <rect x="8" y="40" width="24" height="4" rx="1" fill="#90A4AE"/>
    <rect x="8" y="48" width="20" height="4" rx="1" fill="#90A4AE"/>
    <rect x="8" y="56" width="22" height="4" rx="1" fill="#90A4AE"/>
    
    <!-- ドッキングパネル：メインエリア -->
    <rect x="40" y="24" width="84" height="68" rx="4" fill="#ECEFF1"/>
    <rect x="44" y="28" width="76" height="8" rx="2" fill="#B0BEC5"/>
    <rect x="48" y="44" width="68" height="40" rx="2" fill="#CFD8DC"/>
    
    <!-- ドッキングパネル：ボトムパネル -->
    <rect x="40" y="96" width="84" height="28" rx="4" fill="#78909C"/>
    <rect x="44" y="100" width="32" height="6" rx="2" fill="#546E7A"/>
    <rect x="80" y="100" width="40" height="6" rx="2" fill="#546E7A"/>
    <rect x="44" y="110" width="76" height="4" rx="1" fill="#90A4AE"/>
    <rect x="44" y="118" width="60" height="4" rx="1" fill="#90A4AE"/>
    
    <!-- リセット矢印（円形の回転矢印） -->
    <circle cx="100" cy="64" r="28" fill="#2196F3"/>
    <path d="M100 44 A20 20 0 1 1 80 64" stroke="white" stroke-width="6" fill="none" stroke-linecap="round"/>
    <polygon points="80,52 80,68 92,60" fill="white"/>
    <path d="M100 84 A20 20 0 1 1 120 64" stroke="white" stroke-width="6" fill="none" stroke-linecap="round"/>
    <polygon points="120,76 120,60 108,68" fill="white"/>
</svg>
