<?xml version="1.0" encoding="UTF-8"?>
<svg xmlns="http://www.w3.org/2000/svg" viewBox="0 0 128 128" width="128" height="128">
  <title>評価値グラフの画像の保存</title>
  <defs>
    <linearGradient id="bgGrad" x1="0" y1="0" x2="1" y2="1">
      <stop offset="0%" stop-color="#1A237E"/>
      <stop offset="100%" stop-color="#283593"/>
    </linearGradient>
    <linearGradient id="graphBg" x1="0" y1="0" x2="0" y2="1">
      <stop offset="0%" stop-color="#E3F2FD"/>
      <stop offset="100%" stop-color="#BBDEFB"/>
    </linearGradient>
    <linearGradient id="saveBg" x1="0" y1="0" x2="0" y2="1">
      <stop offset="0%" stop-color="#43A047"/>
      <stop offset="100%" stop-color="#2E7D32"/>
    </linearGradient>
    <clipPath id="graphClip">
      <rect x="4" y="4" width="92" height="92" rx="4"/>
    </clipPath>
  </defs>

  <!-- 背景（全面） -->
  <rect x="0" y="0" width="128" height="128" rx="12" fill="url(#bgGrad)"/>

  <!-- グラフ用紙エリア -->
  <rect x="4" y="4" width="92" height="92" rx="4" fill="url(#graphBg)" stroke="#90CAF9" stroke-width="1.5"/>

  <!-- グリッド線（方眼紙風） -->
  <g stroke="#90CAF9" stroke-width="0.5" opacity="0.5">
    <line x1="4" y1="27" x2="96" y2="27"/>
    <line x1="4" y1="50" x2="96" y2="50"/>
    <line x1="4" y1="73" x2="96" y2="73"/>
    <line x1="27" y1="4" x2="27" y2="96"/>
    <line x1="50" y1="4" x2="50" y2="96"/>
    <line x1="73" y1="4" x2="73" y2="96"/>
  </g>

  <!-- 中央ゼロ線（評価値の基準線） -->
  <line x1="4" y1="50" x2="96" y2="50" stroke="#1565C0" stroke-width="1.5" stroke-dasharray="3,2"/>

  <!-- 先手側の塗りつぶし（上半分・正の評価） -->
  <polygon points="8,50 18,42 28,38 38,30 48,35 58,22 68,28 78,18 88,24 92,20 92,50"
           fill="#F44336" fill-opacity="0.15" clip-path="url(#graphClip)"/>

  <!-- 後手側の塗りつぶし（下半分・負の評価） -->
  <polygon points="8,50 18,42 28,38 38,30 48,35 58,22 68,28 78,18 88,24 92,20 92,50"
           fill="none" clip-path="url(#graphClip)"/>

  <!-- 下半分エリアの薄い塗り -->
  <polygon points="8,50 14,55 20,52 30,58 40,62 50,56 60,65 70,72 80,68 88,75 92,78 92,50"
           fill="#1565C0" fill-opacity="0.15" clip-path="url(#graphClip)"/>

  <!-- 評価値の折れ線グラフ（メイン） -->
  <polyline points="8,50 14,55 18,42 24,44 28,38 34,36 38,30 44,32 48,35 52,28 58,22 64,25 68,28 72,20 78,18 82,22 88,24 92,20"
            fill="none" stroke="#F44336" stroke-width="2.5" stroke-linecap="round" stroke-linejoin="round"/>

  <!-- 対局手数の軸ラベル風の目盛り -->
  <g fill="#1565C0" font-family="sans-serif" font-size="6" opacity="0.7">
    <text x="8" y="94">0</text>
    <text x="46" y="94">50</text>
    <text x="82" y="94">100</text>
  </g>

  <!-- Y軸ラベル風 -->
  <g fill="#1565C0" font-family="sans-serif" font-size="5" opacity="0.7" text-anchor="end">
    <text x="12" y="30">+</text>
    <text x="12" y="76">−</text>
  </g>

  <!-- 画像フレーム枠（画像として保存を示す） -->
  <rect x="2" y="2" width="96" height="96" rx="6" fill="none" stroke="white" stroke-width="2" stroke-dasharray="6,3" opacity="0.5"/>

  <!-- 右下に画像保存バッジ -->
  <g transform="translate(80, 80)">
    <rect x="0" y="0" width="48" height="48" rx="12" fill="url(#saveBg)" stroke="#1B5E20" stroke-width="2"/>

    <!-- フロッピーディスク（保存アイコン） -->
    <rect x="10" y="8" width="28" height="28" rx="3" fill="white" stroke="#2E7D32" stroke-width="1.5"/>
    <!-- フロッピーの上部（ラベル） -->
    <rect x="16" y="8" width="16" height="10" rx="1" fill="#A5D6A7" stroke="#2E7D32" stroke-width="0.8"/>
    <!-- フロッピーの金属部分 -->
    <rect x="20" y="9" width="8" height="6" rx="0.5" fill="#81C784"/>
    <!-- フロッピーの下部ラベルエリア -->
    <rect x="14" y="24" width="20" height="9" rx="1.5" fill="#E8F5E9" stroke="#66BB6A" stroke-width="0.5"/>

    <!-- 小さな画像アイコン（左下に） -->
    <g transform="translate(6, 34)">
      <rect x="0" y="0" width="12" height="10" rx="1" fill="#FFF9C4" stroke="#F9A825" stroke-width="0.8"/>
      <!-- 山のシルエット -->
      <polygon points="1,9 4,5 6,7 9,3 11,9" fill="#66BB6A" opacity="0.7"/>
      <!-- 太陽 -->
      <circle cx="9" cy="3" r="1.5" fill="#FFD54F"/>
    </g>
  </g>
</svg>
