<?xml version="1.0" encoding="UTF-8"?>
<svg xmlns="http://www.w3.org/2000/svg" width="45" height="45" viewBox="0 0 45 45">
  <title>後手 馬</title>
  <defs>
    <linearGradient id="surface" x1="0%" y1="0%" x2="0%" y2="100%">
      <stop offset="0%" stop-color="#59404a" />
      <stop offset="100%" stop-color="#382833" />
    </linearGradient>
  </defs>
  <g transform="matrix(-0.96825,0,0,-0.96825,44.285704,44.283738)">
    <polygon points="4.48,42.79 40.52,43 34.84,6.75 22.76,2 10.47,6.65 " fill="url(#surface)" stroke="#a58b91" stroke-width="0.55" />
    <g>
      <path d="M5.1489,38.7542 L5.1149,40.8683 L5.0592,42.7934 L4.8461,42.7921 L4.8828,41.6310 L4.9160,40.1595 L5.1489,38.7542 Z" fill="#c0a1aa" opacity="0.0312" />
      <path d="M6.9660,27.7912 L6.9892,32.3608 L6.9978,36.2295 L6.9944,39.3220 L6.9767,42.8045 L6.7537,42.8032 L6.7714,39.3207 L6.7747,36.2287 L6.7506,29.0905 L6.9660,27.7912 Z" fill="#c0a1aa" opacity="0.0217" />
      <path d="M8.1525,20.6325 L8.2649,28.5001 L8.3146,33.9084 L8.3223,36.2301 L8.3191,38.5503 L8.3031,40.8665 L8.2781,42.8121 L8.0301,42.8107 L8.0551,40.8626 L8.0710,38.5475 L8.0742,36.2281 L8.0666,33.9072 L8.0260,29.2709 L7.9248,22.0063 L8.1525,20.6325 Z" fill="#c0a1aa" opacity="0.0241" />
      <path d="M10.0755,9.0302 L10.0807,11.9104 L10.1032,15.5940 L10.2250,27.7299 L10.2650,33.1343 L10.2743,36.2295 L10.2724,38.5494 L10.2438,42.8236 L10.1088,42.8228 L10.1374,38.5483 L10.1393,36.2287 L10.1300,33.1339 L10.0971,28.5000 L9.9878,17.8339 L9.9489,12.6411 L9.9407,9.8437 L10.0755,9.0302 Z" fill="#c0a1aa" opacity="0.0259" />
      <path d="M11.8933,6.1115 L11.8773,7.5880 L11.8717,9.7350 L11.8837,11.9108 L11.9104,14.1129 L11.9956,18.5851 L12.2246,28.5001 L12.2782,31.5878 L12.3055,33.9083 L12.3182,36.2299 L12.3134,38.5501 L12.2881,40.8663 L12.2477,42.8353 L12.1127,42.8345 L12.1531,40.8629 L12.1784,38.5476 L12.1831,36.2282 L12.1627,33.1337 L12.1313,30.8146 L12.0737,27.7299 L11.8135,16.3380 L11.7753,14.1119 L11.7486,11.9093 L11.7364,9.0134 L11.7574,6.1629 L11.8933,6.1115 Z" fill="#c0a1aa" opacity="0.0204" />
      <path d="M13.5544,5.4830 L13.5445,9.7345 L13.5572,14.1126 L13.6586,28.5001 L13.6845,33.9081 L13.6868,38.5496 L13.6653,42.8435 L13.4323,42.8422 L13.4551,37.7753 L13.4462,32.3605 L13.4205,27.7299 L13.3366,16.3381 L13.3155,11.9096 L13.3119,8.2981 L13.3210,5.5713 L13.5544,5.4830 Z" fill="#c0a1aa" opacity="0.0243" />
      <path d="M15.8749,4.6050 L15.8610,9.0152 L15.8693,13.3757 L15.9616,28.5001 L15.9844,33.9080 L15.9864,38.5493 L15.9673,42.8569 L15.7983,42.8560 L15.8185,37.7755 L15.8107,32.3605 L15.7881,27.7299 L15.7142,16.3382 L15.6956,11.9098 L15.6925,8.2984 L15.7055,4.6691 L15.8749,4.6050 Z" fill="#c0a1aa" opacity="0.0309" />
      <path d="M17.2804,4.0732 L17.2311,6.1741 L17.2087,8.3005 L17.2095,10.4573 L17.2405,13.3762 L17.2816,15.5942 L17.3339,17.8341 L17.6237,28.5001 L17.6870,31.5878 L17.7191,33.9083 L17.7340,36.2300 L17.7283,38.5502 L17.6984,40.8664 L17.6497,42.8667 L17.5236,42.8660 L17.5724,40.8627 L17.6023,38.5475 L17.6079,36.2281 L17.5839,33.1336 L17.5469,30.8146 L17.4789,27.7299 L17.2472,19.3382 L17.1717,16.3380 L17.1265,14.1119 L17.0950,11.9092 L17.0808,9.7326 L17.0826,8.2973 L17.1051,6.1699 L17.1347,4.7698 L17.1530,4.1215 L17.2804,4.0732 Z" fill="#c0a1aa" opacity="0.0300" />
      <path d="M19.1180,3.3780 L19.0955,4.7737 L19.0746,6.8785 L19.0670,9.0155 L19.0708,11.1822 L19.1139,16.3384 L19.2733,27.7299 L19.3281,33.1344 L19.3408,36.2296 L19.3380,38.5496 L19.3227,40.8656 L19.2975,42.8763 L19.1645,42.8756 L19.1897,40.8636 L19.2050,38.5481 L19.2077,36.2286 L19.1951,33.1339 L19.1403,27.7299 L18.9809,16.3381 L18.9378,11.1811 L18.9340,9.0140 L18.9416,6.8764 L18.9841,3.4286 L19.1180,3.3780 Z" fill="#c0a1aa" opacity="0.0203" />
      <path d="M20.8773,2.7123 L20.8319,4.7753 L20.8057,6.8797 L20.7965,9.0164 L20.8019,11.1828 L20.8196,13.3763 L20.8581,16.3385 L21.0630,27.7299 L21.1081,30.8151 L21.1326,33.1347 L21.1483,36.2302 L21.1442,38.5505 L21.1238,40.8668 L21.0907,42.8868 L20.8656,42.8855 L20.8989,40.8623 L20.9191,38.5472 L20.9232,36.2280 L20.9075,33.1335 L20.8830,30.8146 L20.8378,27.7299 L20.6330,16.3380 L20.5945,13.3748 L20.5768,11.1805 L20.5715,9.0131 L20.5807,6.8751 L20.6069,4.7693 L20.6500,2.7983 L20.8773,2.7123 Z" fill="#c0a1aa" opacity="0.0360" />
      <path d="M22.8820,2.0480 L22.8174,4.0813 L22.7771,6.1744 L22.7589,8.3007 L22.7640,11.1828 L22.7860,13.3762 L22.8340,16.3385 L23.0892,27.7299 L23.1455,30.8151 L23.1760,33.1347 L23.1955,36.2302 L23.1904,38.5505 L23.1651,40.8667 L23.1234,42.8986 L22.9504,42.8976 L22.9921,40.8624 L23.0173,38.5473 L23.0224,36.2280 L23.0028,33.1336 L22.9723,30.8146 L22.9160,27.7299 L22.6608,16.3380 L22.6128,13.3748 L22.5909,11.1805 L22.5842,9.0131 L22.5957,6.8752 L22.6284,4.7695 L22.6852,2.6983 L22.7099,2.0189 L22.7600,2.0000 L22.8820,2.0480 Z" fill="#c0a1aa" opacity="0.0192" />
      <path d="M24.8596,2.8256 L24.7887,4.7764 L24.7453,6.8806 L24.7303,9.0171 L24.7398,11.1832 L24.7698,13.3765 L24.8348,16.3386 L24.9198,19.3382 L25.1792,27.7299 L25.2548,30.8152 L25.2957,33.1349 L25.3215,36.2307 L25.3141,38.5512 L25.2795,40.8677 L25.2225,42.9109 L25.0354,42.9098 L25.0925,40.8614 L25.1270,38.5466 L25.1343,36.2275 L25.1084,33.1333 L25.0674,30.8144 L24.9918,27.7299 L24.7324,19.3382 L24.6474,16.3379 L24.5825,13.3745 L24.5525,11.1800 L24.5431,9.0124 L24.5582,6.8743 L24.6018,4.7682 L24.6755,2.7532 L24.8596,2.8256 Z" fill="#c0a1aa" opacity="0.0355" />
      <path d="M27.1034,3.7079 L27.0789,5.4721 L27.0633,7.5878 L27.0601,9.7349 L27.0722,12.6420 L27.1259,17.8340 L27.2747,28.5001 L27.3234,33.9082 L27.3309,36.2298 L27.3278,38.5500 L27.3121,40.8660 L27.2860,42.9229 L27.0950,42.9218 L27.1211,40.8631 L27.1367,38.5478 L27.1399,36.2283 L27.1278,33.1337 L27.0741,27.7299 L26.9163,16.3381 L26.8730,11.1809 L26.8689,9.0136 L26.8760,6.8759 L26.9137,3.6333 L27.1034,3.7079 Z" fill="#c0a1aa" opacity="0.0283" />
      <path d="M28.8541,4.3963 L28.8191,6.1749 L28.7996,8.3011 L28.8002,10.4578 L28.8271,13.3764 L28.9083,17.8341 L29.1600,28.5001 L29.2150,31.5879 L29.2429,33.9086 L29.2560,36.2304 L29.2511,38.5508 L29.2251,40.8671 L29.1811,42.9339 L28.9821,42.9328 L29.0261,40.8620 L29.0520,38.5470 L29.0569,36.2278 L29.0359,33.1335 L29.0037,30.8145 L28.9446,27.7300 L28.6777,16.3379 L28.6385,14.1117 L28.6112,11.9089 L28.5988,9.7321 L28.6046,7.5840 L28.6201,6.1691 L28.6569,4.3187 L28.8541,4.3963 Z" fill="#c0a1aa" opacity="0.0282" />
      <path d="M30.6179,5.0898 L30.5986,6.8796 L30.5903,9.0163 L30.5952,11.1827 L30.6111,13.3762 L30.6676,17.8341 L30.8417,28.5001 L30.8796,31.5879 L30.8987,33.9084 L30.9075,36.2302 L30.9038,38.5504 L30.8855,40.8667 L30.8545,42.9437 L30.6165,42.9423 L30.6475,40.8624 L30.6657,38.5473 L30.6694,36.2280 L30.6553,33.1336 L30.5924,27.7299 L30.4077,16.3380 L30.3613,11.9091 L30.3535,8.2971 L30.3811,4.9967 L30.6179,5.0898 Z" fill="#c0a1aa" opacity="0.0360" />
      <path d="M31.9318,5.6065 L31.9062,7.5888 L31.9006,9.7356 L31.9140,11.9112 L31.9433,14.1131 L32.0182,17.8341 L32.2841,28.5001 L32.3420,31.5879 L32.3711,33.9086 L32.3845,36.2304 L32.3789,38.5507 L32.3509,40.8671 L32.3035,42.9521 L32.1184,42.9510 L32.1659,40.8620 L32.1938,38.5470 L32.1994,36.2278 L32.1778,33.1335 L32.1440,30.8145 L32.0818,27.7299 L31.7997,16.3379 L31.7580,14.1117 L31.7289,11.9089 L31.7155,9.7322 L31.7169,8.2968 L31.7278,6.8748 L31.7480,5.5342 L31.9318,5.6065 Z" fill="#c0a1aa" opacity="0.0237" />
      <path d="M34.2058,6.5006 L34.1927,9.7352 L34.2029,11.9110 L34.2252,14.1129 L34.2823,17.8341 L34.4849,28.5001 L34.5450,33.1346 L34.5614,36.2301 L34.5571,38.5504 L34.5358,40.8666 L34.4994,42.9649 L34.3053,42.9638 L34.3418,40.8625 L34.3631,38.5474 L34.3673,36.2281 L34.3509,33.1336 L34.3251,30.8146 L34.2777,27.7299 L34.0628,16.3380 L34.0088,11.9092 L33.9983,9.0132 L34.0125,6.4246 L34.2058,6.5006 Z" fill="#c0a1aa" opacity="0.0209" />
      <path d="M36.3544,16.4152 L36.5263,27.7299 L36.5856,33.1344 L36.5993,36.2296 L36.5963,38.5496 L36.5796,40.8656 L36.5506,42.9769 L36.4236,42.9761 L36.4526,40.8635 L36.4692,38.5481 L36.4722,36.2286 L36.4585,33.1338 L36.3992,27.7299 L36.2165,15.5348 L36.3544,16.4152 Z" fill="#c0a1aa" opacity="0.0185" />
      <path d="M37.5617,24.1199 L37.6351,30.0427 L37.6684,34.6819 L37.6724,37.0033 L37.6655,39.3222 L37.6283,42.9832 L37.4833,42.9823 L37.5205,39.3205 L37.5273,37.0020 L37.5233,34.6812 L37.4900,30.0425 L37.4024,23.1035 L37.5617,24.1199 Z" fill="#c0a1aa" opacity="0.0297" />
      <path d="M40.4300,42.4253 L40.4140,42.9994 L40.2129,42.9982 L40.2542,41.3035 L40.4300,42.4253 Z" fill="#c0a1aa" opacity="0.0277" />
      <path d="M20.3434,2.9143 L20.8776,2.8664 L21.5421,2.7942 L20.7058,2.7772 L20.3434,2.9143 Z M21.5421,2.7942 L22.6722,2.6436 L23.1297,2.5714 L23.8768,2.4391 L24.8703,2.8298 L23.2968,2.8205 L21.5421,2.7942 Z" fill="#c0a1aa" opacity="0.0561" />
      <path d="M22.7477,2.0046 L22.7650,2.0020 L23.5802,2.3225 L22.9362,2.4303 L22.2494,2.5315 L21.5705,2.6179 L20.9492,2.6851 L22.7477,2.0046 Z" fill="#fff3d4" opacity="0.0400" />
      <path d="M10.5643,6.6143 L13.6599,7.0878 L14.9066,7.2698 L16.1593,7.4342 L17.4226,7.5731 L18.7010,7.6781 L19.5639,7.7252 L20.4369,7.7513 L20.8776,7.7557 L21.7682,7.7455 L22.6722,7.7082 L23.5911,7.6412 L24.5260,7.5423 L25.0000,7.4800 L27.2731,7.1436 L31.6382,6.4413 L33.3846,6.1777 L34.8400,6.7500 L34.9275,7.3082 L34.0612,7.4303 L31.5714,7.8112 L30.5971,7.9503 L29.5865,8.0779 L28.5306,8.1878 L27.4203,8.2738 L26.2464,8.3299 L25.0000,8.3500 L23.7207,8.3298 L22.8740,8.2956 L21.6116,8.2173 L20.7739,8.1495 L19.5212,8.0283 L17.4373,7.7879 L12.8170,7.2036 L11.5355,7.0580 L10.4210,6.9456 L10.4700,6.6500 L10.5643,6.6143 Z" fill="#c0a1aa" opacity="0.0607" />
      <path d="M11.7491,6.1660 L13.6926,6.4652 L14.9364,6.6467 L16.0808,6.7979 L17.1279,6.9173 L18.1544,7.0123 L19.1925,7.0822 L20.1808,7.1210 L21.1208,7.1304 L22.0277,7.1125 L22.8690,7.0710 L23.7228,7.0033 L24.5915,6.9074 L25.6719,6.7569 L27.2390,6.5212 L32.2250,5.7217 L33.0630,6.0513 L31.6702,6.2642 L27.3071,6.9661 L25.9672,7.1686 L24.7176,7.3449 L23.8485,7.4431 L22.9320,7.5176 L22.0309,7.5626 L21.1282,7.5804 L20.1302,7.5698 L19.1459,7.5302 L18.1146,7.4605 L16.9772,7.3540 L15.9232,7.2318 L14.6681,7.0634 L10.8916,6.4905 L11.7491,6.1660 Z" fill="#fff3d4" opacity="0.0400" />
      <path d="M9.8084,10.6420 L11.9992,10.8230 L13.6599,10.9427 L14.9066,11.0094 L16.1593,11.0476 L17.4226,11.0494 L18.2729,11.0264 L18.7010,11.0068 L19.5639,10.9500 L19.9990,10.9121 L20.7608,10.8296 L15.7669,10.6898 L13.6647,10.6452 L11.5355,10.6258 L10.2401,10.6311 L9.8093,10.6362 L9.8084,10.6420 Z M20.7608,10.8296 L21.7682,10.6908 L22.6722,10.5342 L23.1297,10.4434 L24.0565,10.2353 L24.5260,10.1175 L25.9346,9.7389 L27.2731,9.4127 L28.1262,9.2278 L29.3524,8.9977 L30.5207,8.8222 L30.8985,8.7755 L31.6382,8.6992 L32.0007,8.6694 L32.7122,8.6263 L33.0617,8.6128 L33.7496,8.6013 L34.4245,8.6101 L35.1364,8.6417 L35.4656,10.7427 L34.3673,10.7239 L32.8297,10.7324 L31.5714,10.7592 L28.1670,10.8516 L25.8395,10.8871 L24.5722,10.8893 L23.2968,10.8789 L20.7608,10.8296 Z" fill="#c0a1aa" opacity="0.0479" />
      <path d="M9.9107,10.0246 L11.8094,10.1821 L13.0529,10.2766 L14.1904,10.3488 L15.2260,10.3971 L16.2660,10.4243 L17.2081,10.4270 L18.1284,10.4067 L18.9817,10.3656 L19.9048,10.2950 L20.7774,10.2017 L21.6415,10.0828 L22.5381,9.9306 L23.2650,9.7851 L23.9402,9.6320 L24.4997,9.4918 L26.2214,9.0336 L27.0045,8.8439 L27.7639,8.6741 L28.5008,8.5239 L29.3170,8.3757 L30.1074,8.2519 L30.8738,8.1519 L31.4339,8.0922 L31.9107,8.0507 L32.4164,8.0164 L32.9759,7.9906 L33.4651,7.9786 L34.0068,7.9773 L34.4937,7.9871 L35.0375,8.0104 L35.1087,8.4651 L34.4851,8.4370 L33.8746,8.4264 L33.2680,8.4322 L32.6503,8.4544 L32.0190,8.4937 L31.3851,8.5491 L30.7362,8.6216 L30.0710,8.7116 L29.3877,8.8197 L28.7865,8.9271 L28.1700,9.0483 L27.5371,9.1837 L26.8868,9.3337 L26.2182,9.4984 L24.6842,9.9086 L24.1246,10.0503 L23.4481,10.2058 L22.7193,10.3542 L21.8221,10.5101 L20.9059,10.6392 L19.9724,10.7405 L18.9896,10.8158 L18.1405,10.8565 L17.2140,10.8769 L16.2622,10.8742 L15.2120,10.8468 L14.1674,10.7981 L13.0219,10.7255 L11.7732,10.6307 L9.8368,10.4701 L9.9107,10.0246 Z" fill="#fff3d4" opacity="0.0400" />
      <path d="M9.0742,15.0711 L12.4147,15.3003 L14.0751,15.3921 L14.9066,15.4251 L15.7407,15.4467 L17.0000,15.4533 L17.8468,15.4375 L18.7010,15.4031 L19.5639,15.3481 L19.9990,15.3122 L20.8776,15.2224 L21.3213,15.1680 L22.2184,15.0388 L22.7707,14.9458 L20.7739,14.9145 L16.6029,14.8289 L14.5082,14.7950 L12.3912,14.7796 L10.6736,14.7870 L9.1170,14.8131 L9.0742,15.0711 Z M22.7707,14.9458 L23.5911,14.7903 L24.0565,14.6919 L24.5260,14.5852 L25.9346,14.2437 L26.8350,14.0424 L27.7034,13.8656 L28.9504,13.6447 L30.1372,13.4751 L31.2709,13.3547 L32.3586,13.2813 L33.4074,13.2526 L34.0885,13.2573 L34.7577,13.2803 L35.4169,13.3210 L35.8758,13.3603 L36.1205,14.9223 L35.2872,14.8875 L34.6735,14.8707 L33.1393,14.8555 L31.5714,14.8689 L28.1670,14.9313 L26.6453,14.9518 L24.5722,14.9594 L22.7707,14.9458 Z" fill="#c0a1aa" opacity="0.0469" />
      <path d="M9.1768,14.4525 L12.7396,14.6950 L13.8777,14.7576 L14.8093,14.7967 L15.8477,14.8235 L16.7874,14.8296 L17.7344,14.8155 L18.5542,14.7851 L19.5351,14.7247 L20.4660,14.6413 L21.4069,14.5298 L22.3010,14.3978 L23.0863,14.2601 L23.8831,14.0994 L24.5049,13.9590 L25.5357,13.7068 L26.3400,13.5204 L27.1194,13.3530 L27.8753,13.2040 L28.7119,13.0559 L29.5212,12.9308 L30.3051,12.8282 L31.0654,12.7474 L31.6582,12.6980 L32.2937,12.6592 L32.8550,12.6374 L33.4672,12.6273 L34.0681,12.6319 L34.6212,12.6489 L35.1849,12.6792 L35.7762,12.7249 L35.8480,13.1832 L35.1774,13.1296 L34.4837,13.0938 L33.8125,13.0781 L33.1431,13.0807 L32.4595,13.1018 L31.7588,13.1420 L31.1053,13.1956 L30.3543,13.2753 L29.6787,13.3627 L28.9842,13.4670 L28.2692,13.5887 L27.6389,13.7072 L26.8817,13.8624 L26.2129,14.0104 L24.6166,14.3950 L23.9963,14.5352 L23.2610,14.6848 L22.4753,14.8251 L21.5240,14.9682 L20.5294,15.0870 L19.5400,15.1755 L18.5638,15.2351 L17.6402,15.2680 L16.7912,15.2795 L15.8429,15.2734 L14.7957,15.2464 L13.8572,15.2070 L12.7127,15.1441 L9.1029,14.8985 L9.1768,14.4525 Z" fill="#fff3d4" opacity="0.0400" />
      <path d="M8.0134,21.4713 L9.0672,21.6028 L9.9108,21.7229 L10.7491,21.8535 L11.9992,22.0661 L14.0751,22.4540 L18.2729,23.2788 L19.5639,23.5191 L20.8776,23.7480 L22.2184,23.9608 L23.1297,24.0915 L24.0565,24.2117 L25.0000,24.3200 L25.9346,24.4028 L26.8350,24.4493 L27.7034,24.4622 L28.1262,24.4569 L28.9504,24.4247 L29.7479,24.3659 L30.1372,24.3274 L30.8985,24.2339 L31.2709,24.1797 L32.0007,24.0578 L32.7974,23.9025 L31.8897,24.1263 L31.2501,24.2744 L30.5971,24.4147 L29.9280,24.5451 L29.2401,24.6633 L28.5306,24.7673 L27.7970,24.8548 L27.4203,24.8917 L26.6453,24.9504 L26.2464,24.9717 L25.4241,24.9968 L25.0000,25.0000 L24.5722,24.9968 L23.7207,24.9716 L22.8740,24.9231 L22.0316,24.8534 L21.1924,24.7644 L20.3559,24.6580 L19.5212,24.5363 L18.2708,24.3293 L17.4373,24.1778 L16.1852,23.9356 L12.8170,23.2478 L11.1054,22.9108 L9.3673,22.5997 L7.8649,22.3678 L8.0134,21.4713 Z M32.7974,23.9025 L33.4074,23.7704 L34.4245,23.5276 L36.3170,23.0329 L35.5954,23.1962 L34.9800,23.3453 L32.7974,23.9025 Z M36.3170,23.0329 L37.3489,22.7617 L37.3588,22.8251 L36.3170,23.0329 Z" fill="#c0a1aa" opacity="0.0455" />
      <path d="M8.1154,20.8563 L8.9910,20.9657 L9.9444,21.1004 L10.9947,21.2656 L12.0382,21.4445 L13.9087,21.7926 L18.7402,22.7382 L20.0361,22.9749 L21.3555,23.1985 L22.7031,23.4045 L24.0833,23.5883 L25.2884,23.7232 L26.1907,23.7941 L26.8146,23.8236 L27.4228,23.8366 L28.0165,23.8340 L28.6132,23.8162 L29.1949,23.7841 L29.8247,23.7329 L30.4388,23.6667 L31.0984,23.5781 L31.6917,23.4836 L32.3169,23.3698 L32.9291,23.2451 L33.5299,23.1116 L34.7859,22.8039 L37.2536,22.1539 L37.3236,22.6005 L34.8953,23.2404 L33.6279,23.5508 L33.0202,23.6858 L32.4003,23.8119 L31.7669,23.9273 L31.1738,24.0218 L30.5160,24.1105 L29.9024,24.1774 L29.2736,24.2297 L28.6293,24.2659 L28.0342,24.2837 L27.3800,24.2860 L26.7692,24.2720 L26.1429,24.2418 L25.2398,24.1706 L24.0296,24.0351 L22.6414,23.8503 L21.2870,23.6434 L19.9620,23.4190 L18.6617,23.1816 L13.8262,22.2351 L11.9603,21.8877 L10.9211,21.7096 L9.8773,21.5453 L8.9317,21.4116 L8.0418,21.3006 L8.1154,20.8563 Z" fill="#fff3d4" opacity="0.0400" />
      <path d="M7.3034,25.7554 L8.2169,25.8607 L9.4898,26.0330 L10.7491,26.2259 L12.2654,26.4760 L11.1054,26.3231 L9.8047,26.1713 L8.4864,26.0438 L7.2704,25.9545 L7.3034,25.7554 Z M12.2654,26.4760 L14.4906,26.8479 L16.1593,27.1046 L17.4226,27.2727 L18.7279,27.4134 L17.0203,27.1765 L13.6647,26.6756 L12.2654,26.4760 Z M18.7279,27.4134 L19.5639,27.4828 L20.4369,27.5354 L21.3213,27.5666 L21.7682,27.5735 L22.6722,27.5681 L23.5911,27.5354 L24.5260,27.4730 L25.0000,27.4300 L25.9346,27.3313 L26.8350,27.2248 L28.5418,26.9938 L30.5207,26.6858 L34.0885,26.0892 L35.4169,25.8887 L36.0684,25.8023 L36.7142,25.7269 L37.7982,25.6291 L37.9027,26.2965 L37.1633,26.3579 L36.5294,26.4274 L35.9050,26.5091 L35.2872,26.6012 L34.0612,26.8084 L31.5714,27.2599 L30.5971,27.4217 L29.9280,27.5219 L29.2401,27.6136 L28.5306,27.6950 L27.7970,27.7641 L27.0365,27.8188 L25.8395,27.8697 L25.0000,27.8800 L24.1458,27.8697 L23.2968,27.8399 L22.4523,27.7925 L21.1924,27.6921 L19.9383,27.5620 L18.7279,27.4134 Z" fill="#c0a1aa" opacity="0.0595" />
      <path d="M7.4054,25.1399 L8.6718,25.2923 L9.9443,25.4730 L11.3072,25.6884 L15.0444,26.3087 L16.1900,26.4817 L17.2385,26.6232 L18.4646,26.7621 L19.5682,26.8575 L20.6249,26.9188 L21.6781,26.9476 L22.2748,26.9487 L22.8772,26.9382 L23.4859,26.9154 L24.0400,26.8837 L25.0963,26.7943 L26.6972,26.6151 L28.0951,26.4305 L29.5162,26.2190 L30.8615,26.0015 L33.6289,25.5358 L34.8917,25.3372 L36.1229,25.1688 L37.1622,25.0557 L37.7012,25.0103 L37.7711,25.4562 L37.1495,25.5089 L36.4975,25.5774 L35.8528,25.6567 L35.1194,25.7585 L33.7849,25.9662 L30.8414,26.4610 L29.4863,26.6791 L28.0520,26.8909 L26.6398,27.0755 L25.0222,27.2539 L24.0249,27.3356 L23.4716,27.3664 L22.8633,27.3886 L22.3217,27.3982 L21.7263,27.3981 L20.6827,27.3716 L19.5683,27.3086 L18.4104,27.2089 L17.1837,27.0698 L16.1285,26.9275 L14.9769,26.7536 L11.2344,26.1324 L9.8773,25.9179 L8.5083,25.7245 L7.3317,25.5844 L7.4054,25.1399 Z" fill="#fff3d4" opacity="0.0400" />
      <path d="M6.7078,29.3488 L10.3305,29.4516 L11.5832,29.4753 L12.4147,29.4810 L13.6599,29.4686 L14.4906,29.4429 L15.3232,29.4007 L16.1593,29.3395 L17.0000,29.2571 L17.4226,29.2073 L18.2729,29.0888 L19.1312,28.9433 L19.9990,28.7685 L20.8776,28.5620 L21.7682,28.3217 L22.6722,28.0451 L23.3001,27.8325 L21.1924,27.8827 L19.9383,27.9306 L18.6875,27.9914 L17.4373,28.0648 L16.1852,28.1504 L14.9285,28.2478 L13.6647,28.3569 L11.9641,28.5196 L10.2401,28.7013 L8.4864,28.9014 L6.7469,29.1128 L6.7078,29.3488 Z M23.3001,27.8325 L24.0565,27.5573 L24.5260,27.3740 L25.4717,26.9876 L26.3889,26.6443 L27.2731,26.3545 L27.7034,26.2290 L28.1262,26.1160 L28.5418,26.0152 L28.9504,25.9264 L29.3524,25.8491 L29.7479,25.7833 L30.1372,25.7285 L30.8985,25.6509 L31.2709,25.6276 L32.0007,25.6103 L32.3586,25.6157 L33.0617,25.6535 L33.4074,25.6852 L34.0885,25.7728 L34.7577,25.8906 L35.4169,26.0365 L36.0684,26.2080 L36.7142,26.4029 L37.3564,26.6188 L37.9895,26.8505 L38.3554,29.1855 L37.4846,29.0017 L36.5294,28.8113 L35.5954,28.6387 L34.6735,28.4835 L33.7547,28.3454 L32.8297,28.2241 L31.8897,28.1194 L31.2501,28.0586 L30.2647,27.9807 L29.5865,27.9375 L28.5306,27.8857 L27.7970,27.8595 L27.0365,27.8401 L25.8395,27.8232 L24.5722,27.8208 L23.3001,27.8325 Z" fill="#c0a1aa" opacity="0.0610" />
      <path d="M6.8110,28.7261 L9.9161,28.8158 L11.1703,28.8442 L12.5185,28.8561 L13.6546,28.8438 L14.8941,28.7995 L16.0347,28.7242 L16.6602,28.6670 L17.1838,28.6097 L18.2246,28.4686 L19.2007,28.3014 L20.1882,28.0959 L21.1280,27.8650 L22.0908,27.5918 L22.9338,27.3217 L23.7281,27.0403 L24.4104,26.7780 L25.4928,26.3374 L26.2471,26.0559 L27.0401,25.7911 L27.8083,25.5669 L28.6356,25.3634 L29.4083,25.2110 L29.7866,25.1501 L30.2213,25.0916 L30.5881,25.0519 L31.0093,25.0175 L31.5401,24.9917 L32.1191,24.9862 L32.6254,25.0008 L33.1857,25.0383 L33.7361,25.0966 L34.2766,25.1747 L34.8427,25.2783 L35.4070,25.4028 L35.9655,25.5460 L36.5797,25.7248 L37.1878,25.9223 L37.8829,26.1701 L37.9630,26.6811 L37.4420,26.4880 L36.9643,26.3218 L36.4985,26.1707 L36.0692,26.0421 L35.6384,25.9241 L35.2049,25.8172 L34.7675,25.7221 L34.3888,25.6502 L33.9640,25.5816 L33.5442,25.5264 L33.1201,25.4838 L32.6906,25.4542 L32.2545,25.4381 L31.8748,25.4355 L31.4371,25.4454 L31.0259,25.4672 L30.3070,25.5340 L29.5671,25.6400 L28.8024,25.7875 L28.0181,25.9765 L27.2429,26.1989 L26.5047,26.4419 L25.7424,26.7230 L24.5239,27.2170 L23.7817,27.5000 L22.8674,27.8179 L21.9682,28.0979 L21.4360,28.2483 L20.9331,28.3801 L20.4335,28.5011 L19.8753,28.6250 L18.8325,28.8252 L17.7711,28.9888 L17.0259,29.0806 L16.1797,29.1635 L15.3383,29.2250 L14.5005,29.2676 L13.5608,29.2956 L12.6228,29.3058 L11.5803,29.3003 L10.4305,29.2791 L6.7367,29.1745 L6.8110,28.7261 Z" fill="#fff3d4" opacity="0.0400" />
      <path d="M5.9818,33.7293 L7.3586,33.8278 L8.6430,33.9478 L9.9108,34.0841 L12.4147,34.3684 L14.0751,34.5371 L14.9066,34.6071 L15.7407,34.6637 L17.0000,34.7178 L17.8468,34.7293 L18.7010,34.7180 L19.5639,34.6811 L19.9990,34.6522 L20.8776,34.5719 L21.7682,34.4591 L22.6722,34.3113 L23.1588,34.2172 L22.0316,34.1838 L20.3559,34.1123 L14.0869,33.7595 L12.3912,33.6829 L11.1054,33.6409 L9.3673,33.6126 L8.4864,33.6128 L7.5966,33.6240 L6.6971,33.6473 L5.9908,33.6750 L5.9818,33.7293 Z M23.1588,34.2172 L24.0565,34.0176 L24.5260,33.8992 L25.9346,33.5123 L27.2731,33.1696 L28.5418,32.8784 L29.7479,32.6377 L30.8985,32.4464 L32.0007,32.3031 L33.0617,32.2070 L33.7496,32.1684 L34.4245,32.1500 L35.4169,32.1592 L36.0684,32.1894 L36.7142,32.2386 L37.6769,32.3469 L38.3178,32.4418 L38.8810,32.5400 L39.0982,33.9259 L38.1376,33.8500 L37.1633,33.8029 L36.2162,33.7847 L35.2872,33.7909 L34.3673,33.8173 L33.4475,33.8594 L29.5865,34.0983 L28.5306,34.1537 L27.4203,34.1987 L26.2464,34.2290 L25.4241,34.2387 L24.1458,34.2350 L23.1588,34.2172 Z" fill="#c0a1aa" opacity="0.0489" />
      <path d="M6.0845,33.1097 L7.2678,33.1945 L8.4514,33.3024 L9.7248,33.4369 L12.9568,33.8006 L13.8876,33.8938 L14.8187,33.9746 L15.8563,34.0450 L16.7952,34.0868 L17.7411,34.1041 L18.5600,34.0965 L19.5391,34.0573 L20.5306,33.9813 L21.5257,33.8660 L22.4798,33.7173 L23.2659,33.5657 L24.0020,33.3994 L24.5617,33.2571 L25.7610,32.9260 L26.7805,32.6598 L27.8666,32.3982 L28.8050,32.1931 L29.8078,31.9983 L30.7722,31.8378 L31.7113,31.7100 L32.6579,31.6127 L33.2738,31.5677 L33.8782,31.5383 L34.4846,31.5243 L35.0501,31.5257 L35.6099,31.5410 L36.2259,31.5742 L36.7754,31.6182 L37.3821,31.6827 L38.0278,31.7693 L38.7796,31.8927 L38.8533,32.3633 L37.9667,32.2150 L37.1717,32.1113 L36.3625,32.0350 L35.4987,31.9870 L34.6845,31.9731 L33.8233,31.9906 L32.9692,32.0392 L32.0907,32.1196 L31.2085,32.2290 L30.3648,32.3581 L29.4922,32.5145 L28.5875,32.6986 L27.7537,32.8860 L26.7793,33.1241 L25.8784,33.3604 L24.6848,33.6899 L24.1247,33.8325 L23.3861,34.0000 L22.6573,34.1425 L22.1769,34.2244 L21.6417,34.3043 L20.6521,34.4214 L20.1539,34.4659 L19.5975,34.5044 L18.5580,34.5466 L17.6333,34.5535 L16.7834,34.5366 L15.8343,34.4944 L14.7863,34.4233 L13.8473,34.3420 L12.9105,34.2481 L9.6762,33.8843 L8.4090,33.7504 L7.1258,33.6344 L6.0105,33.5561 L6.0845,33.1097 Z" fill="#fff3d4" opacity="0.0400" />
      <path d="M5.0910,39.1037 L6.0529,39.1647 L7.3586,39.2825 L8.6430,39.4340 L9.9108,39.6142 L11.1666,39.8179 L12.4147,40.0400 L13.6599,40.2756 L17.4226,41.0116 L19.5639,41.4023 L20.8776,41.6176 L21.7682,41.7500 L23.1297,41.9283 L24.0565,42.0313 L25.0000,42.1200 L25.9346,42.1832 L26.8350,42.2126 L27.7034,42.2108 L28.5418,42.1807 L28.9504,42.1558 L29.7479,42.0880 L30.5207,41.9985 L30.8985,41.9464 L31.6483,41.8276 L30.9255,41.9889 L30.2647,42.1236 L29.2401,42.3047 L28.5306,42.4081 L27.7970,42.4953 L27.0365,42.5639 L26.6453,42.5906 L25.8395,42.6273 L25.4241,42.6368 L25.0000,42.6400 L24.1458,42.6272 L23.7207,42.6117 L22.8740,42.5634 L22.4523,42.5312 L21.6116,42.4518 L20.7739,42.3543 L19.9383,42.2406 L19.1043,42.1126 L17.8541,41.8985 L16.1852,41.5819 L11.9641,40.7338 L10.6736,40.4913 L9.3673,40.2662 L8.0427,40.0653 L7.1481,39.9481 L6.2435,39.8467 L4.9859,39.7374 L5.0910,39.1037 Z M31.6483,41.8276 L32.7122,41.6263 L33.7496,41.3985 L34.7577,41.1550 L37.4464,40.4755 L36.5294,40.6485 L35.5954,40.8530 L34.6735,41.0749 L32.5185,41.6189 L31.6483,41.8276 Z M37.4464,40.4755 L38.3178,40.2731 L38.9604,40.1379 L39.6069,40.0171 L40.0415,39.9463 L40.0772,40.1742 L39.4946,40.2133 L38.8067,40.2805 L38.1376,40.3664 L37.4464,40.4755 Z" fill="#c0a1aa" opacity="0.0445" />
      <path d="M5.1938,38.4835 L6.3992,38.5665 L7.7057,38.6939 L8.9917,38.8537 L10.3662,39.0576 L11.5178,39.2502 L12.8708,39.4960 L17.0424,40.3095 L18.6342,40.6091 L20.1449,40.8722 L21.4650,41.0789 L22.8135,41.2630 L24.0789,41.4075 L25.2836,41.5170 L26.2496,41.5719 L26.8722,41.5882 L27.5391,41.5885 L28.1888,41.5716 L28.8059,41.5399 L29.4464,41.4908 L30.0702,41.4271 L30.7391,41.3419 L31.3923,41.2424 L32.4927,41.0413 L33.6154,40.7986 L34.7045,40.5363 L37.1295,39.9211 L38.1814,39.6730 L39.1140,39.4785 L39.9454,39.3331 L40.0151,39.7775 L39.5049,39.8636 L39.0135,39.9567 L37.9724,40.1819 L36.9913,40.4191 L34.6440,41.0151 L33.4552,41.2965 L32.4008,41.5182 L31.4680,41.6860 L30.8186,41.7851 L30.1516,41.8705 L29.4663,41.9406 L28.8272,41.9894 L28.2127,42.0210 L27.5638,42.0381 L26.8965,42.0383 L26.2737,42.0230 L25.3101,41.9702 L24.1515,41.8672 L22.8737,41.7238 L21.5124,41.5405 L20.0715,41.3161 L18.5533,41.0517 L16.9576,40.7514 L12.7890,39.9386 L11.4405,39.6935 L10.2948,39.5018 L8.9310,39.2994 L7.6572,39.1410 L6.3640,39.0150 L5.1197,38.9302 L5.1938,38.4835 Z" fill="#fff3d4" opacity="0.0400" />
    </g>
    <path fill="#ffb5b3" fill-rule="nonzero" d="M12.517 28.601C12.623 30.279 11.506 31.744 10.495 32.330C9.617 32.723 8.978 33.521 9.298 34.532C9.670 35.601 10.974 35.894 11.931 35.333C13.341 34.506 14.326 32.057 12.863 28.570L12.517 28.601M15.895 28.623L15.576 28.703C15.895 30.220 15.975 32.244 15.576 33.974C17.518 36.562 20.950 32.217 15.895 28.623M19.460 28.464L19.194 28.623C19.966 29.875 20.684 31.765 20.657 33.362C22.972 35.469 25.712 30.753 19.460 28.464M23.238 28.041L22.999 28.227C24.063 29.106 25.260 30.625 25.579 31.957C28.106 33.476 29.889 28.520 23.238 28.041M16.135 15.032L20.578 15.032L20.578 18.224L16.135 18.224L16.135 15.032M13.022 14.260L13.022 28.416L13.581 28.413C15.177 28.413 16.135 27.695 16.135 27.482L16.135 26.870L29.809 26.870C29.463 30.595 28.851 33.069 28.160 33.628C27.894 33.814 27.654 33.867 27.228 33.867C26.617 33.867 24.675 33.734 23.477 33.628L23.477 34.001C24.648 34.213 25.659 34.559 26.138 35.038C26.563 35.463 26.670 36.075 26.670 36.900C28.319 36.900 29.410 36.687 30.288 36.049C31.698 35.038 32.469 32.271 32.895 27.376C33.454 27.323 33.773 27.137 33.986 26.924L31.192 24.581L29.570 26.126L23.664 26.126L23.664 22.933L30.607 22.933C30.980 22.933 31.272 22.800 31.352 22.507C30.208 21.523 28.346 20.166 28.346 20.166L26.723 22.188L23.664 22.188L23.664 18.969L30.581 18.969C30.980 18.969 31.246 18.836 31.325 18.544C30.208 17.586 28.346 16.229 28.346 16.229L26.723 18.224L23.664 18.224L23.664 15.032L31.272 15.032C31.645 15.032 31.964 14.899 32.044 14.606C30.847 13.593 28.905 12.150 28.905 12.150L27.202 14.260L16.507 14.260L13.022 12.951L13.022 14.260M16.135 18.969L20.578 18.969L20.578 22.188L16.135 22.188L16.135 18.969M16.135 22.933L20.578 22.933L20.578 26.126L16.135 26.126L16.135 22.933" />
  </g>
</svg>
