<?xml version="1.0" encoding="UTF-8"?>
<svg xmlns="http://www.w3.org/2000/svg" viewBox="0 0 128 128" width="128" height="128">
    <title>将棋盤の縮小</title>
    <defs>
        <style>
            text { font-family: 'Noto Sans JP', 'Yu Gothic', sans-serif; }
        </style>
    </defs>
    <rect x="28" y="28" width="72" height="72" fill="#D4A574" stroke="#8B4513" stroke-width="3"/>
        <line x1="28" y1="52" x2="100" y2="52" stroke="#8B4513" stroke-width="1.5"/>
        <line x1="28" y1="76" x2="100" y2="76" stroke="#8B4513" stroke-width="1.5"/>
        <line x1="52" y1="28" x2="52" y2="100" stroke="#8B4513" stroke-width="1.5"/>
        <line x1="76" y1="28" x2="76" y2="100" stroke="#8B4513" stroke-width="1.5"/>
        <path d="M16 0 L0 0 L0 16" stroke="#F44336" stroke-width="6" fill="none" stroke-linecap="round"/>
        <path d="M112 0 L128 0 L128 16" stroke="#F44336" stroke-width="6" fill="none" stroke-linecap="round"/>
        <path d="M16 128 L0 128 L0 112" stroke="#F44336" stroke-width="6" fill="none" stroke-linecap="round"/>
        <path d="M112 128 L128 128 L128 112" stroke="#F44336" stroke-width="6" fill="none" stroke-linecap="round"/>
        <line x1="0" y1="0" x2="24" y2="24" stroke="#F44336" stroke-width="4" stroke-linecap="round"/>
        <line x1="128" y1="0" x2="104" y2="24" stroke="#F44336" stroke-width="4" stroke-linecap="round"/>
        <line x1="0" y1="128" x2="24" y2="104" stroke="#F44336" stroke-width="4" stroke-linecap="round"/>
        <line x1="128" y1="128" x2="104" y2="104" stroke="#F44336" stroke-width="4" stroke-linecap="round"/>
</svg>