<?xml version="1.0" encoding="UTF-8"?>
<svg xmlns="http://www.w3.org/2000/svg" viewBox="0 0 128 128" width="128" height="128">
    <title>全ての駒を駒台へ</title>
    <defs>
        <style>
            text { font-family: 'Noto Sans JP', 'Yu Gothic', sans-serif; }
        </style>
    </defs>
    <rect x="80" y="0" width="48" height="128" rx="6" fill="#8D6E63" stroke="#5D4037" stroke-width="3"/>
        <polygon points="16,32 8,52 24,52" fill="#1A1A1A"/>
        <polygon points="48,48 40,68 56,68" fill="#1A1A1A"/>
        <polygon points="16,72 8,92 24,92" fill="#1A1A1A"/>
        <path d="M48 52 Q68 52 80 32" stroke="#4CAF50" stroke-width="5" fill="none" stroke-linecap="round"/>
        <polygon points="76,24 86,32 76,40" fill="#4CAF50"/>
        <path d="M40 80 Q60 80 80 60" stroke="#4CAF50" stroke-width="5" fill="none" stroke-linecap="round"/>
        <polygon points="76,52 86,60 76,68" fill="#4CAF50"/>
        <path d="M24 100 Q52 100 80 84" stroke="#4CAF50" stroke-width="5" fill="none" stroke-linecap="round"/>
        <polygon points="76,76 86,84 76,92" fill="#4CAF50"/>
</svg>